<?xml version="1.0" encoding="UTF-8"?>
<svg width="21px" height="16px" viewBox="0 0 21 16" version="1.1" xmlns="http://www.w3.org/2000/svg" xmlns:xlink="http://www.w3.org/1999/xlink">
    <title>us</title>
    <defs>
        <rect id="path-1" x="0" y="-8.74296363e-16" width="21" height="15.7499231"></rect>
    </defs>
    <g id="Page-1" stroke="none" stroke-width="1" fill="none" fill-rule="evenodd">
        <g id="us">
            <mask id="mask-2" fill="white">
                <use xlink:href="#path-1"></use>
            </mask>
            <g id="rect4295"></g>
            <g id="flag" mask="url(#mask-2)">
                <g transform="translate(0.000000, -0.000000)">
                    <g id="g390" stroke-width="1" fill="none" fill-rule="evenodd" transform="translate(0.000000, 0.000000)">
                        <g id="g169" fill="#BD3D44" fill-rule="nonzero">
                            <rect id="rect156" x="0" y="0" width="28.0548245" height="1.13582285"></rect>
                            <rect id="rect158" x="0" y="2.27164571" width="28.0548245" height="1.13582285"></rect>
                            <rect id="rect160" x="0" y="4.54329141" width="28.0548245" height="1.13582285"></rect>
                            <rect id="rect162" x="0" y="6.81493712" width="28.0548245" height="1.13582285"></rect>
                            <rect id="rect164" x="0" y="9.08658283" width="28.0548245" height="1.13582285"></rect>
                            <rect id="rect166" x="0" y="11.3582285" width="28.0548245" height="1.13582285"></rect>
                            <rect id="rect168" x="0" y="13.6298742" width="28.0548245" height="1.13582285"></rect>
                        </g>
                        <g id="g177" transform="translate(0.000000, 1.135823)" fill="#FFFFFF" fill-rule="nonzero">
                            <rect id="rect157" x="0" y="0" width="28.0548245" height="1.13582285"></rect>
                            <rect id="rect159" x="0" y="2.27164571" width="28.0548245" height="1.13582285"></rect>
                            <rect id="rect161" x="0" y="4.54329141" width="28.0548245" height="1.13582285"></rect>
                            <rect id="rect163" x="0" y="6.81493712" width="28.0548245" height="1.13582285"></rect>
                            <rect id="rect165" x="0" y="9.08658283" width="28.0548245" height="1.13582285"></rect>
                            <rect id="rect167" x="0" y="11.3582285" width="28.0548245" height="1.13582285"></rect>
                        </g>
                    </g>
                    <rect id="rect200" fill="#192F5D" fill-rule="nonzero" x="0" y="3.64057017e-16" width="11.2218202" height="7.95061578"></rect>
                    <g id="g274" stroke-width="1" fill="none" fill-rule="evenodd" transform="translate(0.502636, 0.340293)">
                        <g id="g218" transform="translate(0.000000, 0.000000)" fill="#FFFFFF" fill-rule="nonzero">
                            <g id="g194" transform="translate(0.000000, -0.000000)">
                                <polygon id="polygon207" points="0.432521343 0 0.534626138 0.381966783 0.865042685 0.381966783 0.597726777 0.618034597 0.699837251 1 0.432521343 0.763933566 0.165205434 1 0.267315909 0.618034597 0 0.381966783 0.330416547 0.381966783"></polygon>
                                <polygon id="polygon188" points="2.30284676 0 2.40495156 0.381966783 2.7353681 0.381966783 2.4680522 0.618034597 2.57016267 1 2.30284676 0.763933566 2.03553085 1 2.13764133 0.618034597 1.87032542 0.381966783 2.20074197 0.381966783"></polygon>
                                <polygon id="polygon189" points="4.17320625 0 4.27531105 0.381966783 4.6057276 0.381966783 4.33841169 0.618034597 4.44052216 1 4.17320625 0.763933566 3.90589035 1 4.00800082 0.618034597 3.74068491 0.381966783 4.07110146 0.381966783"></polygon>
                                <polygon id="polygon190" points="6.04345217 0 6.14555696 0.381966783 6.47597351 0.381966783 6.2086576 0.618034597 6.31076807 1 6.04345217 0.763933566 5.77613626 1 5.87824673 0.618034597 5.61093082 0.381966783 5.94134737 0.381966783"></polygon>
                                <polygon id="polygon191" points="7.91381166 0 8.01591645 0.381966783 8.346333 0.381966783 8.07901709 0.618034597 8.18112757 1 7.91381166 0.763933566 7.64649575 1 7.74860622 0.618034597 7.48129032 0.381966783 7.81170686 0.381966783"></polygon>
                                <polygon id="polygon192" points="9.78417115 0 9.88627595 0.381966783 10.2166925 0.381966783 9.94937659 0.618034597 10.0514871 1 9.78417115 0.763933566 9.51685524 1 9.61896572 0.618034597 9.35164981 0.381966783 9.68206636 0.381966783"></polygon>
                            </g>
                            <g id="g205" transform="translate(0.935202, 0.795076)">
                                <polygon id="polygon193" points="0.432521343 -2.45241373e-16 0.534626138 0.381966783 0.865042685 0.381966783 0.597726777 0.618034597 0.699837251 1 0.432521343 0.763933566 0.165205434 1 0.267315909 0.618034597 0 0.381966783 0.330416547 0.381966783"></polygon>
                                <polygon id="polygon201" points="2.30276725 -2.45241373e-16 2.40487205 0.381966783 2.7352886 0.381966783 2.46797269 0.618034597 2.57008316 1 2.30276725 0.763933566 2.03545134 1 2.13756182 0.618034597 1.87024591 0.381966783 2.20066246 0.381966783"></polygon>
                                <polygon id="polygon202" points="4.17312675 -2.45241373e-16 4.27523154 0.381966783 4.60564809 0.381966783 4.33833218 0.618034597 4.44044266 1 4.17312675 0.763933566 3.90581084 1 4.00792131 0.618034597 3.7406054 0.381966783 4.07102195 0.381966783"></polygon>
                                <polygon id="polygon203" points="6.04348624 -2.45241373e-16 6.14559104 0.381966783 6.47600758 0.381966783 6.20869167 0.618034597 6.31080215 1 6.04348624 0.763933566 5.77617033 1 5.87828081 0.618034597 5.6109649 0.381966783 5.94138144 0.381966783"></polygon>
                                <polygon id="polygon204" points="7.91373215 -2.45241373e-16 8.01583695 0.381966783 8.34625349 0.381966783 8.07893758 0.618034597 8.18104806 1 7.91373215 0.763933566 7.64641624 1 7.74852672 0.618034597 7.48121081 0.381966783 7.81162736 0.381966783"></polygon>
                            </g>
                        </g>
                        <g id="g232" transform="translate(0.000000, 1.590152)" fill="#FFFFFF" fill-rule="nonzero">
                            <g id="g233" transform="translate(0.000000, -0.000000)">
                                <polygon id="polygon234" points="0.432521343 0 0.534626138 0.381966783 0.865042685 0.381966783 0.597726777 0.618034597 0.699837251 1 0.432521343 0.763933566 0.165205434 1 0.267315909 0.618034597 0 0.381966783 0.330416547 0.381966783"></polygon>
                                <polygon id="polygon235" points="2.30284676 0 2.40495156 0.381966783 2.7353681 0.381966783 2.4680522 0.618034597 2.57016267 1 2.30284676 0.763933566 2.03553085 1 2.13764133 0.618034597 1.87032542 0.381966783 2.20074197 0.381966783"></polygon>
                                <polygon id="polygon236" points="4.17320625 0 4.27531105 0.381966783 4.6057276 0.381966783 4.33841169 0.618034597 4.44052216 1 4.17320625 0.763933566 3.90589035 1 4.00800082 0.618034597 3.74068491 0.381966783 4.07110146 0.381966783"></polygon>
                                <polygon id="polygon237" points="6.04345217 0 6.14555696 0.381966783 6.47597351 0.381966783 6.2086576 0.618034597 6.31076807 1 6.04345217 0.763933566 5.77613626 1 5.87824673 0.618034597 5.61093082 0.381966783 5.94134737 0.381966783"></polygon>
                                <polygon id="polygon238" points="7.91381166 0 8.01591645 0.381966783 8.346333 0.381966783 8.07901709 0.618034597 8.18112757 1 7.91381166 0.763933566 7.64649575 1 7.74860622 0.618034597 7.48129032 0.381966783 7.81170686 0.381966783"></polygon>
                                <polygon id="polygon239" points="9.78417115 0 9.88627595 0.381966783 10.2166925 0.381966783 9.94937659 0.618034597 10.0514871 1 9.78417115 0.763933566 9.51685524 1 9.61896572 0.618034597 9.35164981 0.381966783 9.68206636 0.381966783"></polygon>
                            </g>
                            <g id="g240" transform="translate(0.935202, 0.795076)">
                                <polygon id="polygon241" points="0.432521343 -2.45241373e-16 0.534626138 0.381966783 0.865042685 0.381966783 0.597726777 0.618034597 0.699837251 1 0.432521343 0.763933566 0.165205434 1 0.267315909 0.618034597 0 0.381966783 0.330416547 0.381966783"></polygon>
                                <polygon id="polygon242" points="2.30276725 -2.45241373e-16 2.40487205 0.381966783 2.7352886 0.381966783 2.46797269 0.618034597 2.57008316 1 2.30276725 0.763933566 2.03545134 1 2.13756182 0.618034597 1.87024591 0.381966783 2.20066246 0.381966783"></polygon>
                                <polygon id="polygon243" points="4.17312675 -2.45241373e-16 4.27523154 0.381966783 4.60564809 0.381966783 4.33833218 0.618034597 4.44044266 1 4.17312675 0.763933566 3.90581084 1 4.00792131 0.618034597 3.7406054 0.381966783 4.07102195 0.381966783"></polygon>
                                <polygon id="polygon244" points="6.04348624 -2.45241373e-16 6.14559104 0.381966783 6.47600758 0.381966783 6.20869167 0.618034597 6.31080215 1 6.04348624 0.763933566 5.77617033 1 5.87828081 0.618034597 5.6109649 0.381966783 5.94138144 0.381966783"></polygon>
                                <polygon id="polygon245" points="7.91373215 -2.45241373e-16 8.01583695 0.381966783 8.34625349 0.381966783 8.07893758 0.618034597 8.18104806 1 7.91373215 0.763933566 7.64641624 1 7.74852672 0.618034597 7.48121081 0.381966783 7.81162736 0.381966783"></polygon>
                            </g>
                        </g>
                        <g id="g246" transform="translate(0.000000, 3.180304)" fill="#FFFFFF" fill-rule="nonzero">
                            <g id="g247" transform="translate(0.000000, -0.000000)">
                                <polygon id="polygon248" points="0.432521343 0 0.534626138 0.381966783 0.865042685 0.381966783 0.597726777 0.618034597 0.699837251 1 0.432521343 0.763933566 0.165205434 1 0.267315909 0.618034597 0 0.381966783 0.330416547 0.381966783"></polygon>
                                <polygon id="polygon249" points="2.30284676 0 2.40495156 0.381966783 2.7353681 0.381966783 2.4680522 0.618034597 2.57016267 1 2.30284676 0.763933566 2.03553085 1 2.13764133 0.618034597 1.87032542 0.381966783 2.20074197 0.381966783"></polygon>
                                <polygon id="polygon250" points="4.17320625 0 4.27531105 0.381966783 4.6057276 0.381966783 4.33841169 0.618034597 4.44052216 1 4.17320625 0.763933566 3.90589035 1 4.00800082 0.618034597 3.74068491 0.381966783 4.07110146 0.381966783"></polygon>
                                <polygon id="polygon251" points="6.04345217 0 6.14555696 0.381966783 6.47597351 0.381966783 6.2086576 0.618034597 6.31076807 1 6.04345217 0.763933566 5.77613626 1 5.87824673 0.618034597 5.61093082 0.381966783 5.94134737 0.381966783"></polygon>
                                <polygon id="polygon252" points="7.91381166 0 8.01591645 0.381966783 8.346333 0.381966783 8.07901709 0.618034597 8.18112757 1 7.91381166 0.763933566 7.64649575 1 7.74860622 0.618034597 7.48129032 0.381966783 7.81170686 0.381966783"></polygon>
                                <polygon id="polygon253" points="9.78417115 0 9.88627595 0.381966783 10.2166925 0.381966783 9.94937659 0.618034597 10.0514871 1 9.78417115 0.763933566 9.51685524 1 9.61896572 0.618034597 9.35164981 0.381966783 9.68206636 0.381966783"></polygon>
                            </g>
                            <g id="g254" transform="translate(0.935202, 0.795076)">
                                <polygon id="polygon255" points="0.432521343 -2.45241373e-16 0.534626138 0.381966783 0.865042685 0.381966783 0.597726777 0.618034597 0.699837251 1 0.432521343 0.763933566 0.165205434 1 0.267315909 0.618034597 0 0.381966783 0.330416547 0.381966783"></polygon>
                                <polygon id="polygon256" points="2.30276725 -2.45241373e-16 2.40487205 0.381966783 2.7352886 0.381966783 2.46797269 0.618034597 2.57008316 1 2.30276725 0.763933566 2.03545134 1 2.13756182 0.618034597 1.87024591 0.381966783 2.20066246 0.381966783"></polygon>
                                <polygon id="polygon257" points="4.17312675 -2.45241373e-16 4.27523154 0.381966783 4.60564809 0.381966783 4.33833218 0.618034597 4.44044266 1 4.17312675 0.763933566 3.90581084 1 4.00792131 0.618034597 3.7406054 0.381966783 4.07102195 0.381966783"></polygon>
                                <polygon id="polygon258" points="6.04348624 -2.45241373e-16 6.14559104 0.381966783 6.47600758 0.381966783 6.20869167 0.618034597 6.31080215 1 6.04348624 0.763933566 5.77617033 1 5.87828081 0.618034597 5.6109649 0.381966783 5.94138144 0.381966783"></polygon>
                                <polygon id="polygon259" points="7.91373215 -2.45241373e-16 8.01583695 0.381966783 8.34625349 0.381966783 8.07893758 0.618034597 8.18104806 1 7.91373215 0.763933566 7.64641624 1 7.74852672 0.618034597 7.48121081 0.381966783 7.81162736 0.381966783"></polygon>
                            </g>
                        </g>
                        <g id="g260" transform="translate(0.000000, 4.770456)" fill="#FFFFFF" fill-rule="nonzero">
                            <g id="g261" transform="translate(0.000000, -0.000000)">
                                <polygon id="polygon262" points="0.432521343 0 0.534626138 0.381966783 0.865042685 0.381966783 0.597726777 0.618034597 0.699837251 1 0.432521343 0.763933566 0.165205434 1 0.267315909 0.618034597 0 0.381966783 0.330416547 0.381966783"></polygon>
                                <polygon id="polygon263" points="2.30284676 0 2.40495156 0.381966783 2.7353681 0.381966783 2.4680522 0.618034597 2.57016267 1 2.30284676 0.763933566 2.03553085 1 2.13764133 0.618034597 1.87032542 0.381966783 2.20074197 0.381966783"></polygon>
                                <polygon id="polygon264" points="4.17320625 0 4.27531105 0.381966783 4.6057276 0.381966783 4.33841169 0.618034597 4.44052216 1 4.17320625 0.763933566 3.90589035 1 4.00800082 0.618034597 3.74068491 0.381966783 4.07110146 0.381966783"></polygon>
                                <polygon id="polygon265" points="6.04345217 0 6.14555696 0.381966783 6.47597351 0.381966783 6.2086576 0.618034597 6.31076807 1 6.04345217 0.763933566 5.77613626 1 5.87824673 0.618034597 5.61093082 0.381966783 5.94134737 0.381966783"></polygon>
                                <polygon id="polygon266" points="7.91381166 0 8.01591645 0.381966783 8.346333 0.381966783 8.07901709 0.618034597 8.18112757 1 7.91381166 0.763933566 7.64649575 1 7.74860622 0.618034597 7.48129032 0.381966783 7.81170686 0.381966783"></polygon>
                                <polygon id="polygon267" points="9.78417115 0 9.88627595 0.381966783 10.2166925 0.381966783 9.94937659 0.618034597 10.0514871 1 9.78417115 0.763933566 9.51685524 1 9.61896572 0.618034597 9.35164981 0.381966783 9.68206636 0.381966783"></polygon>
                            </g>
                            <g id="g268" transform="translate(0.935202, 0.795076)">
                                <polygon id="polygon269" points="0.432521343 -2.45241373e-16 0.534626138 0.381966783 0.865042685 0.381966783 0.597726777 0.618034597 0.699837251 1 0.432521343 0.763933566 0.165205434 1 0.267315909 0.618034597 0 0.381966783 0.330416547 0.381966783"></polygon>
                                <polygon id="polygon270" points="2.30276725 -2.45241373e-16 2.40487205 0.381966783 2.7352886 0.381966783 2.46797269 0.618034597 2.57008316 1 2.30276725 0.763933566 2.03545134 1 2.13756182 0.618034597 1.87024591 0.381966783 2.20066246 0.381966783"></polygon>
                                <polygon id="polygon271" points="4.17312675 -2.45241373e-16 4.27523154 0.381966783 4.60564809 0.381966783 4.33833218 0.618034597 4.44044266 1 4.17312675 0.763933566 3.90581084 1 4.00792131 0.618034597 3.7406054 0.381966783 4.07102195 0.381966783"></polygon>
                                <polygon id="polygon272" points="6.04348624 -2.45241373e-16 6.14559104 0.381966783 6.47600758 0.381966783 6.20869167 0.618034597 6.31080215 1 6.04348624 0.763933566 5.77617033 1 5.87828081 0.618034597 5.6109649 0.381966783 5.94138144 0.381966783"></polygon>
                                <polygon id="polygon273" points="7.91373215 -2.45241373e-16 8.01583695 0.381966783 8.34625349 0.381966783 8.07893758 0.618034597 8.18104806 1 7.91373215 0.763933566 7.64641624 1 7.74852672 0.618034597 7.48121081 0.381966783 7.81162736 0.381966783"></polygon>
                            </g>
                        </g>
                        <g id="g211" transform="translate(0.000000, 6.360608)" fill="#FFFFFF" fill-rule="nonzero">
                            <polygon id="polygon212" points="0.432521343 0 0.534626138 0.381966783 0.865042685 0.381966783 0.597726777 0.618034597 0.699837251 1 0.432521343 0.763933566 0.165205434 1 0.267315909 0.618034597 0 0.381966783 0.330416547 0.381966783"></polygon>
                            <polygon id="polygon213" points="2.30284676 0 2.40495156 0.381966783 2.7353681 0.381966783 2.4680522 0.618034597 2.57016267 1 2.30284676 0.763933566 2.03553085 1 2.13764133 0.618034597 1.87032542 0.381966783 2.20074197 0.381966783"></polygon>
                            <polygon id="polygon214" points="4.17320625 0 4.27531105 0.381966783 4.6057276 0.381966783 4.33841169 0.618034597 4.44052216 1 4.17320625 0.763933566 3.90589035 1 4.00800082 0.618034597 3.74068491 0.381966783 4.07110146 0.381966783"></polygon>
                            <polygon id="polygon215" points="6.04345217 0 6.14555696 0.381966783 6.47597351 0.381966783 6.2086576 0.618034597 6.31076807 1 6.04345217 0.763933566 5.77613626 1 5.87824673 0.618034597 5.61093082 0.381966783 5.94134737 0.381966783"></polygon>
                            <polygon id="polygon216" points="7.91381166 0 8.01591645 0.381966783 8.346333 0.381966783 8.07901709 0.618034597 8.18112757 1 7.91381166 0.763933566 7.64649575 1 7.74860622 0.618034597 7.48129032 0.381966783 7.81170686 0.381966783"></polygon>
                            <polygon id="polygon217" points="9.78417115 0 9.88627595 0.381966783 10.2166925 0.381966783 9.94937659 0.618034597 10.0514871 1 9.78417115 0.763933566 9.51685524 1 9.61896572 0.618034597 9.35164981 0.381966783 9.68206636 0.381966783"></polygon>
                        </g>
                    </g>
                </g>
            </g>
        </g>
    </g>
</svg>