<?xml version="1.0" encoding="UTF-8"?>
<svg width="128px" height="40px" viewBox="0 0 128 40" version="1.1" xmlns="http://www.w3.org/2000/svg" xmlns:xlink="http://www.w3.org/1999/xlink">
    <title>Asset 1@3x</title>
    <g id="Sales" stroke="none" stroke-width="1" fill="none" fill-rule="evenodd">
        <g id="Sorender-Act" transform="translate(-36.000000, -621.000000)" fill="#000000" fill-rule="nonzero">
            <g id="Asset-1" transform="translate(36.000000, 621.000000)">
                <path d="M45.2852197,24.6124878 C45.3296913,25.3343365 45.2358538,26.0579948 45.0086422,26.7454061 L44.8426957,27.1282376 L44.7873802,27.1282376 C44.0682788,26.2531942 43.8470168,24.667178 43.8470168,23.628064 C43.8470168,22.58895 42.1875519,22.7530207 42.1875519,23.6827542 C42.1399215,24.5856907 42.010331,25.4825699 41.8003435,26.3625746 C41.5790815,27.0735473 41.2471885,28.2220418 40.4174561,28.4408026 C39.5877237,28.6595635 39.0345687,27.237618 38.9792532,26.5813354 C38.9487033,26.5813354 38.9239377,26.5568498 38.9239377,26.5266452 C39.3675403,25.4529027 39.5567541,24.293038 39.4770927,23.1358521 C39.3664617,22.1514283 38.1495208,22.6436402 37.8729433,23.1905423 C37.3703629,24.1707288 37.1412299,25.2656863 37.2091574,26.3625746 C36.379425,28.550183 34.8859066,30.8471719 33.4477037,29.4799166 C33.1798191,29.1181278 33.0793374,28.6611366 33.1711263,28.2220418 C34.6670608,26.445088 35.9136834,24.4767178 36.8772644,22.3701892 C38.0388898,21.8779773 39.3111462,22.4795696 40.3068251,23.1905423 C41.302504,23.9015151 40.9152956,23.0811619 40.6940336,22.8624011 C40.4727716,22.6436402 38.7026758,21.0576241 37.3751039,21.1123143 C37.9155633,19.6938806 38.3229261,18.2293064 38.5920448,16.7370974 C39.2005152,12.9087826 38.3707828,8.91639723 35.715639,6.01781604 C33.0604953,3.11923485 29.7415656,2.24419147 26.3120049,1.9160502 L25.8141654,1.9160502 C25.7604636,1.395151 25.6491679,0.881641894 25.4822725,0.384724289 C25.316326,-0.326248456 24.2653316,0.0565830225 24.3206471,0.658175345 L24.4865935,1.80666978 C21.4311696,1.68712406 18.3876199,2.24783442 15.5807989,3.44737611 C11.7325688,5.19476219 8.38627681,7.86409244 5.84527175,11.2133861 C3.63265195,14.0572771 1.9731871,17.9949723 2.63697304,21.6045262 C1.19751686,23.2539179 0.29184373,25.2924624 0.0371447745,27.4563788 C-0.405379185,31.5581447 3.19012799,35.1676986 6.3431112,37.3006168 C9.49609441,39.4335351 12.1512382,40.3632687 15.4701679,39.8710568 C18.7890976,39.3788449 21.0017174,37.081856 22.5505512,34.4020356 C23.32549,34.4999086 24.1117763,34.4628897 24.873802,34.2926552 C27.5289458,33.6363727 29.7968811,31.8862859 31.7329234,29.9174383 C31.7367305,30.01849 31.7758236,30.1151181 31.8435544,30.1908894 C32.4244322,31.0894249 33.4888718,31.5619343 34.5540136,31.394074 C35.6679982,31.1139758 36.6351935,30.4309314 37.2644729,29.4799166 L37.8176278,28.7142537 C38.2270202,29.5136799 39.0692322,30.0047545 39.9749321,29.9721285 C41.4684505,29.9721285 42.4641294,28.9330145 43.0725999,27.6751397 C43.3107363,28.066374 43.6314981,28.4021649 44.0129633,28.6595635 C44.7320647,29.1517754 45.6724281,28.550183 46.1149521,27.9485907 C46.557476,27.3469984 47,25.7062921 47,24.5577976 C47,23.4093032 45.2852197,23.6827542 45.2852197,24.6124878 Z M19.0103595,36.5349539 C17.4972279,37.9115583 15.4737079,38.6048516 13.4234946,38.4491113 C11.6533987,38.3397308 9.93861837,37.5193777 8.44510001,36.6443343 C6.48725606,35.5346536 4.77535571,34.0466983 3.41138997,32.2691174 C2.8576739,31.4550574 2.37646716,30.5950167 1.9731871,29.6986775 C1.64456292,28.7480097 1.58714744,27.7262135 1.80724061,26.7454061 C1.98668406,25.5386604 2.46138936,24.3934726 3.19012799,23.4093032 C4.57301536,26.4172648 8.00257605,27.2923082 11.2108748,27.3469984 C11.9299762,27.4016886 12.6490776,27.3469984 13.3128636,27.3469984 C13.9766495,27.3469984 13.8660185,26.7454061 13.4234946,26.7454061 C9.82798738,26.5266452 5.67932526,25.6516018 4.51769987,21.8779773 L4.57301536,21.8779773 C6.56051621,20.06395 9.6095456,20.0168474 11.6533987,21.7685969 C13.3681791,23.2452326 14.4191735,25.3234606 15.4701679,27.237618 C16.5211623,29.1517754 18.5125201,32.7613293 21.0570329,33.9098237 C20.5196752,34.8864761 19.8288465,35.7725557 19.0103595,36.5349539 Z M22.4952357,30.7924817 C22.3075251,31.3699012 22.0858862,31.9359961 21.8314498,32.4878782 C21.4761049,32.3280195 21.1417548,32.1260041 20.8357709,31.8862859 C19.2316215,30.5190306 18.2359426,28.4408026 17.1849482,26.6360256 C16.1339538,24.8312487 14.9723284,22.5342598 13.3681791,20.9482437 C11.6140535,19.2230811 9.08124025,18.5194265 6.67500417,19.0887765 C5.78789455,19.3359507 4.94723514,19.7238238 4.1858069,20.2372709 C3.90922942,16.5730268 6.17716472,12.9087826 8.5004155,10.3383427 C10.8236663,7.7679028 14.9170129,4.75994118 18.7890976,3.8848978 C20.7071972,3.42706556 22.6816809,3.24289913 24.65254,3.33799569 C24.9565377,6.9026752 25.0673272,10.4808878 24.984433,14.0572771 C24.9291175,19.6356786 24.4865935,25.4875312 22.4952357,30.7924817 L22.4952357,30.7924817 Z M26.3120049,32.159737 C25.4341745,32.6944037 24.4087143,32.9430884 23.3802836,32.8707097 C23.7674921,31.9956663 24.0993851,31.120623 24.4312781,30.2455796 C26.2013739,24.8859389 26.6438979,19.0887765 26.6992133,13.4556848 C26.7464455,10.1093078 26.5430663,6.76406457 26.0907429,3.44737611 C27.2406785,3.54696697 28.3739011,3.78574346 29.4649881,4.15834886 C32.9666184,5.1679662 35.6884178,7.90039902 36.6560024,11.3774567 C37.6516814,14.82294 36.8219489,18.5418744 35.3284306,21.8232871 C34.6966149,22.2650862 34.1369707,22.7999603 33.6689657,23.4093032 C32.6353374,24.7557717 31.9002683,26.3024659 31.5116614,27.9485907 C30.0713013,29.672651 28.3052299,31.1029733 26.3120049,32.159737 L26.3120049,32.159737 Z" id="Shape"></path>
                <path d="M48.7632818,24.6494025 C48.7632818,24.5530606 48.7042851,24.5048897 48.7042851,24.4085478 C48.7042851,24.3122059 48.6452885,23.6859834 48.5862919,23.3487867 L48.409302,22.8670772 L48.409302,22.4817096 C48.409302,22.3853676 48.4682986,22.2408548 48.3503054,22.2890257 C48.2323121,22.3371967 48.5862919,22 48.3503054,22 C48.0734401,22.070522 47.8408277,22.2259183 47.7013425,22.4335386 C47.6423459,22.6262224 47.4063594,23.0115901 47.3473628,23.2524448 C47.2883662,23.4932996 47.1703729,24.167693 47.0523797,24.6012316 C46.8799264,25.4038817 47.1377393,26.2283602 47.7603391,26.8652665 C47.9810022,27.0075197 48.2793046,27.0397887 48.5377227,26.9493605 C48.7961408,26.8589322 48.9732479,26.6603031 48.9992683,26.4317279 C49.0085602,25.832037 48.9293271,25.2336163 48.7632818,24.6494025 Z" id="Path"></path>
                <path d="M59.3425607,26.3618483 C59.123237,26.8660259 58.8637405,27.3489131 58.5669673,27.8051209 C57.6879615,27.0279741 57.1708992,25.6957225 56.8606618,24.4189813 C56.9548735,23.923784 57.0239172,23.4234501 57.0674868,22.9201983 C57.1708992,20.5332475 57.2226054,17.0915975 55.5680062,15.204241 C55.1543563,14.7046467 54.2236443,15.204241 54.171938,15.8148564 C54.025597,18.3752473 54.2701172,20.9441019 54.8958252,23.4197926 C54.9992377,23.7528555 55.1026501,24.1969394 55.2060626,24.6410233 C55.1088546,25.037537 54.9879564,25.4269165 54.844119,25.8067434 C54.3787629,27.0279741 53.8099944,28.5267571 52.8792824,29.3594144 L52.8275761,29.3594144 C52.7305542,29.1996228 52.6441623,29.0326762 52.569045,28.85982 C52.2071014,27.9716523 52.9826948,26.5838902 53.8099944,26.3063378 C54.6372941,26.0287854 54.1202318,25.9732749 53.9134069,25.9177644 C52.8275761,25.6957225 51.8451578,26.5283797 51.3280955,27.5275684 C50.7945802,28.488602 50.921329,29.7132705 51.6383329,30.5251346 C53.034401,32.0794281 54.7407065,29.4149249 55.309475,28.3047152 C55.8782435,27.1945055 55.7748311,27.4165475 55.981656,26.9724636 C56.4550933,28.116971 57.2750933,29.0559909 58.3084362,29.6369668 C58.7784575,29.7989873 59.2874769,29.5613916 59.4976794,29.081862 C59.859623,28.1936942 59.7562106,27.361037 59.9630355,26.4173588 C60.1698604,25.4736805 59.4459732,26.1398063 59.3425607,26.3618483 Z" id="Path"></path>
                <path d="M76.1663618,21.8856478 C75.9971764,21.6684054 75.5460152,21.8313372 75.6024103,22.1028902 C75.9832302,23.8550438 75.550678,25.6799891 74.4181121,27.0994649 C73.3534033,28.4513398 71.7674797,29.3324759 70.0192903,29.5434416 C66.8047667,29.8149946 64.6617509,26.7736013 63.6466382,24.2210034 C62.6315255,21.6684054 62.5751303,17.8123532 63.1390818,14.7166493 C63.7030334,11.6209454 64.7181461,8.74248392 66.7483715,6.46143895 C68.778597,4.18039398 70.5832418,3.96315161 72.7262576,5.0493635 C74.8692733,6.13557539 75.9971764,8.9597263 75.9971764,11.2950819 C75.9971764,11.5666348 76.3355473,11.5123242 76.3919424,11.3493925 C77.6890309,8.14506738 75.6024103,4.34332577 72.3314915,3.25711388 C69.0605727,2.17090199 65.9024443,4.72349993 64.2105897,7.22178728 C62.5309263,9.94039147 61.4913539,12.9809099 61.1652515,16.1287248 C60.7439762,19.3023767 61.1310837,22.5270855 62.2931546,25.5244576 C63.6466382,28.8917145 66.7483715,31.5529336 70.6960321,30.9012065 C74.6436927,30.2494793 78.8169339,25.6330788 76.1663618,21.8856478 Z" id="Path"></path>
                <path d="M83.7854626,24.4453919 C83.3812845,21.6362517 81.2812471,19.3018985 78.4009824,18.4601276 C73.4217857,16.9366058 67.2846362,19.385123 64.0423686,23.0306931 C63.8686757,23.2483391 64.2739591,23.357162 64.447652,23.1939276 C66.9349249,20.7888334 70.3180722,19.3844179 73.8849668,19.2763 C77.0114391,19.1674771 80.7747855,20.5277644 81.7590453,23.5203965 C82.7433051,26.5130287 82.280124,28.9615459 81.9327382,31.4644746 C81.7990707,32.8185301 81.4273408,34.1423719 80.8326831,35.3821021 C80.4852973,36.03504 79.9063209,36.8512124 79.3273446,36.0894515 C78.7483682,35.3276906 78.1693918,32.3894699 77.9956989,30.6483022 C77.9378013,30.3218332 77.3009273,30.4850677 77.3009273,30.7571251 C77.1564419,31.9855155 77.098418,33.2215311 77.1272344,34.4571067 C77.2430297,35.5997481 77.4167226,37.2865044 78.7483682,37.8306193 C80.0800138,38.3747342 81.1800689,37.5041503 81.8748406,36.6879779 C82.5696122,35.8718055 83.0906909,34.3482837 83.3801791,33.1512309 C84.0352868,30.2913559 84.172304,27.3481074 83.7854626,24.4453919 Z" id="Path"></path>
                <path d="M127.976848,22.4774432 C127.920874,22.1990687 127.473076,22.3660934 127.417101,22.588793 C127.193203,24.0920152 125.625911,25.7065872 123.94667,25.4282127 C122.267429,25.1498382 121.651707,23.7579658 120.756112,22.9228423 C120.521398,22.7450064 120.217022,22.6855282 119.932111,22.7618241 C119.6472,22.83812 119.413991,23.0415575 119.30077,23.3125666 C119.111119,23.8584842 118.826967,24.3672177 118.461149,24.8157888 C118.461149,24.8465372 118.436089,24.8714637 118.405175,24.8714637 C118.405175,24.8407153 118.380114,24.8157888 118.3492,24.8157888 C117.733478,24.203365 117.845428,22.8114925 117.789453,22.032044 C117.733478,21.2525954 117.061782,21.4196201 116.613984,21.6979946 L116.334111,21.8650193 C116.254723,21.9836618 116.197813,22.1157414 116.166187,22.2547436 L116.166187,22.2547436 C116.110183,22.6611262 116.110183,23.0732087 116.166187,23.4795913 C116.054237,24.2590399 115.718389,25.0941633 115.102667,25.0384884 C114.840855,24.1317526 114.484409,23.2547412 114.039148,22.4217683 C113.927199,22.1990687 113.535376,22.4217683 113.535376,22.6444678 C113.559554,22.7360763 113.578245,22.8290312 113.591351,22.9228423 L113.535376,22.9228423 C113.367452,22.3104185 113.423426,21.3082703 112.639781,21.1412456 C111.856135,20.9742209 112.303932,21.2525954 112.303932,21.3639452 C112.312308,21.4424244 112.292479,21.5213189 112.247958,21.5866448 C112.253157,21.525686 112.232914,21.4652844 112.191983,21.4196201 C111.576261,20.3061222 110.232869,19.9720728 109.001425,19.9163979 C106.762437,19.9163979 103.739803,21.9763691 104.131626,24.4817395 L103.851753,24.0920152 C103.403955,23.4239164 102.340436,23.8136407 102.228486,24.5374144 C102.196014,24.99893 102.08234,25.4511929 101.892638,25.8736119 L101.612765,25.5395625 C101.310421,25.2303449 101.097685,24.845624 100.997043,24.4260646 C101.514294,23.1379128 101.871444,21.7917504 102.060562,20.417472 C102.432386,18.4731685 102.526605,16.4864158 102.340436,14.5159328 C102.284461,13.7364843 101.108992,13.9591839 100.773144,14.4045831 C99.7492716,16.0522492 99.1530064,17.9271206 99.0379286,19.860723 C98.8139916,21.3985689 98.8708776,22.963987 99.2058527,24.4817395 C98.854564,25.2053546 98.3130034,25.820966 97.6385611,26.2633362 C96.5750418,26.9314349 95.9593201,25.5395625 95.6794466,24.704439 C95.3995731,23.8693156 94.8398261,24.3147148 94.5039779,24.4817395 C93.8241126,24.8895729 93.1128821,25.2432835 92.3769393,25.5395625 L91.7612176,25.7065872 L91.7052429,25.7065872 C91.7052429,25.6509123 91.7612176,25.6509123 91.7612176,25.5395625 C91.9104521,25.1403737 92.1179134,24.7651915 92.3769393,24.4260646 L93.2725345,23.4239164 L93.4964333,23.4239164 C94.1941063,23.8155359 95.0195465,23.9156602 95.791396,23.7022909 C96.5750418,23.4239164 97.470637,22.588793 97.1347888,21.7536695 C96.8284066,20.9686111 96.0112222,20.5041497 95.1756743,20.6401715 C94.3927406,20.7554285 93.6568309,21.082888 93.0486357,21.5866448 L92.0410911,21.0855707 C91.0335465,20.4731469 89.9700272,20.1947724 88.9065079,20.8071962 C88.655415,20.2847564 88.3354051,19.7979509 87.954938,19.3596489 C87.4852336,18.9384606 86.8583571,18.7344876 86.2291959,18.7981274 C85.6000348,18.8617672 85.0272741,19.1870837 84.6524307,19.6936983 C83.6448861,20.9742209 83.9807343,23.2012168 84.4845066,24.5930893 C84.596456,24.9271386 85.1002283,24.6487641 85.1002283,24.3703897 C84.8763295,23.089867 84.7643801,21.6423197 85.3241271,20.4731469 C85.8838741,19.303974 86.8914187,19.9720728 87.3392163,20.8071962 C87.5030656,21.1080373 87.6344064,21.4252993 87.7310392,21.7536695 C86.4995958,23.3682415 86.275697,26.0963115 87.4511657,27.6552086 C87.6282386,27.8822456 87.9045441,28.0103837 88.1932203,27.9993403 C88.4818966,27.9882968 88.7474906,27.8394281 88.9065079,27.5995337 C89.8580778,26.5973856 89.8021031,24.9271386 89.634179,23.646616 C89.5912464,23.159774 89.5164549,22.6762332 89.4102802,22.1990687 C89.8580778,21.8093444 90.4737995,22.032044 90.9215971,22.3104185 L91.7612176,22.7001427 C91.3706628,23.155406 91.01515,23.6392915 90.6976983,24.1476901 C90.3058754,24.7601139 89.8580778,25.5395625 90.0260019,26.3190111 C90.193926,27.0984596 91.2574453,27.2654843 92.0410911,27.1541345 C92.8641112,26.9456828 93.6549478,26.6272968 94.3920285,26.2076613 C94.8958008,27.2098094 95.7354213,27.989258 96.9668647,27.9335831 C98.1521828,27.7911952 99.2155981,27.1402909 99.8775491,26.1519864 C100.189703,26.7956839 100.79348,27.2512684 101.500815,27.3768341 C102.3368,27.5000798 103.140469,27.0063545 103.403955,26.2076613 C103.878873,26.577359 104.501853,26.7012877 105.083196,26.5417107 L105.36307,26.4303609 C106.539029,27.1087074 107.963326,27.2113646 109.225324,26.7087353 C109.561676,26.7012337 109.890018,26.6051799 110.176894,26.4303609 C111.184438,27.3768341 112.527831,28.1562827 113.815249,27.5438588 C114.349712,27.3080983 114.785074,26.8947521 115.046693,26.374686 C115.695037,26.3757888 116.310329,26.0901905 116.725934,25.5952374 C116.925265,25.9374564 117.243949,26.1950004 117.621529,26.3190111 C118.741023,26.8200851 119.636618,25.9292868 120.25234,24.9271386 C121.427809,26.0963115 122.659252,27.2098094 124.450442,26.9871098 C126.653063,26.6702698 128.210287,24.6788476 127.976848,22.4774432 L127.976848,22.4774432 Z M95.2876237,22.1433938 L95.3995731,22.2547436 L95.5115225,22.2547436 C95.2876237,22.4774432 94.9517755,22.4217683 94.6159273,22.2547436 C94.8264954,22.1608634 95.057826,22.1225147 95.2876237,22.1433938 Z M110.792616,24.1476901 C110.740795,24.318265 110.644186,24.4720122 110.512742,24.5930893 C110.245409,24.6008411 109.988726,24.6990365 109.785071,24.8714637 L108.94545,25.3168629 C108.385703,24.9271386 107.434134,24.0920152 107.378159,23.4239164 C107.322184,22.7558176 107.15426,23.3125666 107.042311,23.3682415 L106.874387,23.2568917 C106.629983,22.9880011 106.223287,22.9404108 105.922817,23.1455419 C106.31464,22.2547436 107.602058,21.5309699 108.441678,21.3639452 C110.232869,20.9742209 111.576261,22.4217683 110.792616,24.1476901 L110.792616,24.1476901 Z M111.576261,25.4282127 L111.80016,25.2055131 C112.131534,24.8221018 112.3623,24.3630415 112.471857,23.8693156 C112.583806,24.203365 112.639781,24.4817395 112.75173,24.7601139 C112.913675,25.1757874 113.184194,25.5409543 113.535376,25.817937 C113.493435,25.932629 113.414768,26.0304366 113.311477,26.0963115 C112.919654,26.4860358 112.136008,25.9292868 111.576261,25.4282127 L111.576261,25.4282127 Z" id="Shape"></path>
            </g>
        </g>
    </g>
</svg>