<?xml version="1.0" encoding="UTF-8"?>
<svg width="50px" height="31px" viewBox="0 0 50 31" version="1.1" xmlns="http://www.w3.org/2000/svg" xmlns:xlink="http://www.w3.org/1999/xlink">
    <title>Group@3x</title>
    <defs>
        <filter id="filter-1">
            <feColorMatrix in="SourceGraphic" type="matrix" values="0 0 0 0 1.000000 0 0 0 0 1.000000 0 0 0 0 1.000000 0 0 0 1.000000 0"></feColorMatrix>
        </filter>
        <filter id="filter-2">
            <feColorMatrix in="SourceGraphic" type="matrix" values="0 0 0 0 0.000000 0 0 0 0 0.000000 0 0 0 0 0.000000 0 0 0 1.000000 0"></feColorMatrix>
        </filter>
    </defs>
    <g id="Page-1" stroke="none" stroke-width="1" fill="none" fill-rule="evenodd">
        <g filter="url(#filter-1)" id="Group">
            <g>
                <g filter="url(#filter-2)">
                    <g transform="translate(-0.000000, -0.000000)">
                        <path d="M12.7516839,24.3 C11.0516839,24.3 9.05168395,23.6 9.45168395,21.1 C9.45168395,20.5 9.85168395,19.6 10.3516839,18.3 C9.25168395,16.7 7.95168395,14.3 7.35168395,11.5 C5.35168395,15.9 2.95168395,21.3 3.35168395,24.3 C1.65168395,24.3 -0.348316054,23.6 0.0516839455,21.1 C0.351683946,19.1 4.75168395,10 6.15168395,5.8 C3.55168395,5.6 0.651683946,5.2 0.551683946,3.6 C0.451683946,2 2.45168395,0 2.45168395,0 C2.45168395,0 3.65168395,2.7 7.95168395,3.7 C8.55168395,3.8 9.25168395,4.1 9.45168395,4.7 C9.65168395,5.2 9.45168395,5.7 9.45168395,6.2 C8.95168395,9.7 9.55168395,13.8 10.9516839,16.7 C12.9516839,12.1 15.8516839,5.7 15.5516839,4.7 C15.5516839,4.7 17.8516839,4.2 18.5516839,5.6 C19.4516839,7.7 11.8516839,19.1 12.6516839,24.4 L12.7516839,24.3 Z" id="Path" fill="#F1F2F2" fill-rule="nonzero"></path>
                        <path d="M23.8516839,16.2 C23.8516839,16.2 20.4516839,24.2 18.1516839,24.2 C15.8516839,24.2 15.0516839,23.3 15.0516839,20.4 C15.0516839,17.5 18.8516839,10.7 20.3516839,10.7 C21.8516839,10.7 23.8516839,11.9 23.1516839,13.5 C22.7516839,14.4 20.9516839,17.5 18.5516839,18.8 C18.4516839,19.8 18.4516839,20.7 18.8516839,20.7 C20.9516839,20.7 23.1516839,16.3 23.3516839,15.9 C23.5516839,15.5 24.0516839,15.7 23.8516839,16.1 L23.8516839,16.2 Z M18.7516839,18 C19.6516839,17.4 21.5516839,15.8 22.4516839,13.5 C22.4516839,13.4 22.5516839,13 22.4516839,12.9 C22.3516839,12.8 21.9516839,13 21.7516839,13.1 C20.2516839,14.6 19.3516839,16.1 18.8516839,18 L18.7516839,18 Z" id="Shape" fill="#F1F2F2" fill-rule="nonzero"></path>
                        <path d="M24.9516839,23.9 C24.9516839,24.1 24.9516839,24.3 24.6516839,24.3 C24.0516839,24.3 21.9516839,23.4 21.9516839,20.5 C21.9516839,17.6 28.2516839,3.9 29.6516839,3.9 C31.0516839,3.9 32.1516839,5.1 31.8516839,5.4 C29.6516839,8.4 24.3516839,18.4 24.8516839,23.9 L24.9516839,23.9 Z" id="Path" fill="#F1F2F2" fill-rule="nonzero"></path>
                        <path d="M42.4516839,5.4 C40.2516839,8.4 35.3516839,18.4 35.8516839,23.9 C35.8516839,24.1 35.8516839,24.3 35.5516839,24.3 C34.9516839,24.3 32.5516839,23.5 32.4516839,20.7 C31.5516839,22.2 30.6516839,23.5 30.2516839,24.1 C30.2516839,24.2 30.1516839,24.3 29.9516839,24.3 C29.3516839,24.3 26.8516839,23.4 26.8516839,20.5 C26.8516839,17.6 31.1516839,10.8 32.6516839,10.8 C34.1516839,10.8 34.6516839,11.5 35.3516839,12.3 C37.1516839,8.1 39.3516839,3.9 40.1516839,3.9 C41.3516839,3.9 42.6516839,5.1 42.3516839,5.4 L42.4516839,5.4 Z M33.0516839,18.3 C33.3516839,17.3 33.8516839,16.1 34.3516839,14.8 L34.0516839,15 C33.9516839,15 33.7516839,14.9 33.9516839,14.7 C34.1516839,14.5 34.9516839,13.1 34.7516839,12.9 C34.5516839,12.7 33.9516839,13 33.9516839,13.1 C31.8516839,14.8 30.6516839,17.2 30.3516839,20.3 C30.3516839,20.6 30.5516839,20.9 30.7516839,20.9 C30.9516839,20.9 32.1516839,19.6 33.0516839,18.4 L33.0516839,18.3 Z" id="Shape" fill="#F1F2F2" fill-rule="nonzero"></path>
                        <path d="M49.4516839,16.2 C49.4516839,16 45.7516839,24.2 45.0516839,24.2 C44.3516839,24.2 42.4516839,24 41.9516839,22 C41.7516839,22.3 40.7516839,24.2 40.3516839,24.2 C39.7516839,24.2 37.2516839,23.3 37.2516839,20.4 C37.2516839,17.5 41.5516839,10.7 43.0516839,10.7 C44.5516839,10.7 46.4516839,12.1 46.2516839,13.2 C47.1516839,13.5 47.8516839,14.3 47.6516839,14.6 C47.4516839,14.9 44.3516839,20.6 45.8516839,20.6 C47.3516839,20.6 48.8516839,16.2 49.0516839,15.8 C49.2516839,15.4 49.6516839,15.6 49.4516839,16 L49.4516839,16.2 Z M42.0516839,19.9 C42.5516839,18.4 43.6516839,16.3 44.5516839,14.9 C44.5516839,14.9 44.4516839,14.9 44.3516839,15 C44.2516839,15 44.0516839,14.9 44.2516839,14.7 C44.4516839,14.5 45.2516839,13.1 45.0516839,12.9 C44.8516839,12.7 44.2516839,13 44.2516839,13.1 C42.1516839,14.8 40.9516839,17.2 40.6516839,20.3 C40.6516839,20.6 40.8516839,20.9 41.0516839,20.9 C41.2516839,20.9 41.5516839,20.6 42.0516839,20 L42.0516839,19.9 Z" id="Shape" fill="#F1F2F2" fill-rule="nonzero"></path>
                    </g>
                </g>
                <text id="BUSINESS-CORPORATION" font-family="Roboto-Medium, Roboto" font-size="3.99992" font-weight="400" fill="#000000">
                    <tspan x="0" y="30">BUSINESS CORPORATION</tspan>
                </text>
            </g>
        </g>
    </g>
</svg>