<?xml version="1.0" encoding="UTF-8"?>
<svg width="56px" height="64px" viewBox="0 0 56 64" version="1.1" xmlns="http://www.w3.org/2000/svg" xmlns:xlink="http://www.w3.org/1999/xlink">
    <title>analysis@3x</title>
    <g id="Page-1" stroke="none" stroke-width="1" fill="none" fill-rule="evenodd">
        <g id="analysis" fill-rule="nonzero">
            <path d="M49.99925,3 L45.99925,3 C45.72325,3 45.49925,2.776 45.49925,2.5 C45.49925,2.224 45.72325,2 45.99925,2 L49.99925,2 C50.27525,2 50.49925,2.224 50.49925,2.5 C50.49925,2.776 50.27525,3 49.99925,3 Z" id="Path" fill="#263238"></path>
            <path d="M47.99925,5 C47.72325,5 47.49925,4.776 47.49925,4.5 L47.49925,0.5 C47.49925,0.224 47.72325,0 47.99925,0 C48.27525,0 48.49925,0.224 48.49925,0.5 L48.49925,4.5 C48.49925,4.776 48.27525,5 47.99925,5 Z" id="Path" fill="#263238"></path>
            <path d="M55.49925,8.5 L51.49925,8.5 C51.22325,8.5 50.99925,8.276 50.99925,8 C50.99925,7.724 51.22325,7.5 51.49925,7.5 L55.49925,7.5 C55.77525,7.5 55.99925,7.724 55.99925,8 C55.99925,8.276 55.77525,8.5 55.49925,8.5 Z" id="Path" fill="#263238"></path>
            <path d="M53.49925,10.5 C53.22325,10.5 52.99925,10.276 52.99925,10 L52.99925,6 C52.99925,5.724 53.22325,5.5 53.49925,5.5 C53.77525,5.5 53.99925,5.724 53.99925,6 L53.99925,10 C53.99925,10.276 53.77525,10.5 53.49925,10.5 Z" id="Path" fill="#263238"></path>
            <path d="M49.99925,44 C49.72325,44 49.49925,43.776 49.49925,43.5 L49.49925,41.5 C49.49925,41.224 49.72325,41 49.99925,41 C50.27525,41 50.49925,41.224 50.49925,41.5 L50.49925,43.5 C50.49925,43.776 50.27525,44 49.99925,44 Z" id="Path" fill="#263238"></path>
            <path d="M49.99925,40 C49.72325,40 49.49925,39.776 49.49925,39.5 L49.49925,21.5 C49.49925,21.224 49.72325,21 49.99925,21 C50.27525,21 50.49925,21.224 50.49925,21.5 L50.49925,39.5 C50.49925,39.776 50.27525,40 49.99925,40 Z" id="Path" fill="#263238"></path>
            <path d="M25.49925,49.362 C16.95225,49.362 9.99925,42.408 9.99925,33.862 C9.99925,25.315 16.95225,18.362 25.49925,18.362 C34.04625,18.362 40.99925,25.315 40.99925,33.862 C40.99925,42.409 34.04625,49.362 25.49925,49.362 Z M25.49925,19.362 C17.50425,19.362 10.99925,25.867 10.99925,33.862 C10.99925,41.857 17.50425,48.362 25.49925,48.362 C33.49425,48.362 39.99925,41.857 39.99925,33.862 C39.99925,25.867 33.49425,19.362 25.49925,19.362 Z" id="Shape" fill="#263238"></path>
            <g id="Group" transform="translate(12.999250, 21.362000)">
                <path d="M24.5,12.5 C24.5,19.127 19.127,24.5 12.5,24.5 C5.873,24.5 0.5,19.127 0.5,12.5 C0.5,5.873 5.873,0.5 12.5,0.5 C19.127,0.5 24.5,5.873 24.5,12.5 Z" id="Path" fill="#FFD740"></path>
                <path d="M12.5,25 C5.607,25 0,19.393 0,12.5 C0,9.161 1.3,6.021 3.661,3.661 C6.021,1.301 9.16,0 12.499,0 L12.5,0 C19.393,0 25,5.607 25,12.5 C25,19.393 19.393,25 12.5,25 Z M12.499,1 C9.428,1 6.54,2.196 4.368,4.368 C2.196,6.54 1,9.428 1,12.5 C1,18.841 6.159,24 12.5,24 C18.841,24 24,18.842 24,12.5 C24,6.158 18.841,1 12.499,1 L12.499,1 Z" id="Shape" fill="#263238"></path>
            </g>
            <path d="M34.49925,34.362 C34.22325,34.362 33.99925,34.138 33.99925,33.862 C33.99925,29.175 30.18625,25.362 25.49925,25.362 C25.22325,25.362 24.99925,25.138 24.99925,24.862 C24.99925,24.586 25.22325,24.362 25.49925,24.362 C30.73725,24.362 34.99925,28.624 34.99925,33.862 C34.99925,34.139 34.77525,34.362 34.49925,34.362 Z" id="Path" fill="#263238"></path>
            <path d="M40.34925,52.04 C40.22125,52.04 40.09325,51.991 39.99525,51.894 L34.23225,46.131 C34.13025,46.029 34.07725,45.888 34.08625,45.744 C34.09525,45.6 34.16725,45.468 34.28125,45.38 C35.31025,44.593 36.23025,43.673 37.01525,42.646 C37.10325,42.532 37.23625,42.46 37.37925,42.451 C37.52525,42.445 37.66425,42.495 37.76625,42.597 L43.52925,48.36 C43.72425,48.555 43.72425,48.872 43.52925,49.067 L40.70125,51.895 C40.60425,51.991 40.47725,52.04 40.34925,52.04 Z M35.33625,45.82 L40.34925,50.833 L42.47025,48.712 L37.45725,43.699 C36.82025,44.472 36.11025,45.182 35.33625,45.82 Z" id="Shape" fill="#263238"></path>
            <g id="Group" transform="translate(39.203500, 47.566250)">
                <path d="M4.32675,0.79175 L0.79075,4.32775 C0.39975,4.71875 0.39975,5.35175 0.79075,5.74175 L10.68975,15.64075 C11.08075,16.03175 11.71375,16.03175 12.10375,15.64075 L15.63975,12.10475 C16.03075,11.71375 16.03075,11.08075 15.63975,10.69075 L5.74075,0.79175 C5.35075,0.40075 4.71775,0.40075 4.32675,0.79175 Z" id="Path" fill="#40C4FF"></path>
                <path d="M11.39875,16.43275 C11.01475,16.43275 10.62975,16.28675 10.33775,15.99475 L0.43875,6.09575 C-0.14625,5.51075 -0.14625,4.55875 0.43875,3.97375 L3.97375,0.43875 C4.55775,-0.14625 5.51075,-0.14625 6.09475,0.43875 L15.99375,10.33775 C16.57875,10.92275 16.57875,11.87375 15.99375,12.45875 L12.45875,15.99475 C12.16675,16.28675 11.78175,16.43275 11.39875,16.43275 Z M5.03375,0.99875 C4.90575,0.99875 4.77775,1.04675 4.67975,1.14475 L1.14475,4.67975 C0.94975,4.87475 0.94975,5.19175 1.14475,5.38775 L11.04375,15.28675 C11.23875,15.48175 11.55575,15.48175 11.75075,15.28675 L15.28575,11.75075 C15.48075,11.55575 15.48075,11.23875 15.28575,11.04375 L5.38675,1.14475 C5.28975,1.04775 5.16175,0.99875 5.03375,0.99875 Z" id="Shape" fill="#263238"></path>
            </g>
            <path d="M42.35825,59 L7.49925,59 C5.84525,59 4.49925,57.654 4.49925,56 L4.49925,9 C4.49925,7.346 5.84525,6 7.49925,6 L43.49925,6 C45.15325,6 46.49925,7.346 46.49925,9 L46.49925,46.648 C46.49925,46.924 46.27525,47.148 45.99925,47.148 C45.72325,47.148 45.49925,46.924 45.49925,46.648 L45.49925,9 C45.49925,7.897 44.60225,7 43.49925,7 L7.49925,7 C6.39625,7 5.49925,7.897 5.49925,9 L5.49925,56 C5.49925,57.103 6.39625,58 7.49925,58 L42.35825,58 C42.63425,58 42.85825,58.224 42.85825,58.5 C42.85825,58.776 42.63525,59 42.35825,59 Z" id="Path" fill="#263238"></path>
            <path d="M25.49925,34.362 C25.40325,34.362 25.30725,34.335 25.22225,34.278 L10.56325,24.506 L0.85325,34.216 C0.65825,34.411 0.34125,34.411 0.14625,34.216 C-0.04875,34.021 -0.04875,33.704 0.14625,33.509 L10.14625,23.509 C10.31525,23.341 10.57825,23.314 10.77725,23.447 L25.43625,33.219 L40.14625,18.509 C40.34125,18.314 40.65825,18.314 40.85325,18.509 C41.04825,18.704 41.04825,19.021 40.85325,19.216 L25.85325,34.216 C25.75625,34.312 25.62825,34.362 25.49925,34.362 Z" id="Path" fill="#263238"></path>
            <g id="Group" transform="translate(22.499250, 30.862000)">
                <circle id="Oval" fill="#FFD740" cx="3" cy="3" r="2.5"></circle>
                <path d="M3,6 C1.346,6 0,4.654 0,3 C0,1.346 1.346,0 3,0 C4.654,0 6,1.346 6,3 C6,4.654 4.654,6 3,6 Z M3,1 C1.897,1 1,1.897 1,3 C1,4.103 1.897,5 3,5 C4.103,5 5,4.103 5,3 C5,1.897 4.103,1 3,1 Z" id="Shape" fill="#263238"></path>
            </g>
            <g id="Group" transform="translate(14.499250, 10.000000)">
                <rect id="Rectangle" fill="#FF5252" x="0.5" y="0.5" width="21" height="4"></rect>
                <path d="M21.5,5 L0.5,5 C0.224,5 0,4.776 0,4.5 L0,0.5 C0,0.224 0.224,0 0.5,0 L21.5,0 C21.776,0 22,0.224 22,0.5 L22,4.5 C22,4.776 21.776,5 21.5,5 Z M1,4 L21,4 L21,1 L1,1 L1,4 Z" id="Shape" fill="#263238"></path>
            </g>
        </g>
    </g>
</svg>