<?xml version="1.0" encoding="UTF-8"?>
<svg width="53px" height="59px" viewBox="0 0 53 59" version="1.1" xmlns="http://www.w3.org/2000/svg" xmlns:xlink="http://www.w3.org/1999/xlink">
    <title>commissions@3x</title>
    <g id="Page-1" stroke="none" stroke-width="1" fill="none" fill-rule="evenodd">
        <g id="commissions" fill-rule="nonzero">
            <g id="Group" transform="translate(13.250000, 5.469000)">
                <path d="M14,27.5 C6.544,27.5 0.5,21.456 0.5,14 C0.5,6.544 6.544,0.5 14,0.5 C21.456,0.5 27.5,6.544 27.5,14 C27.5,21.455 21.456,27.5 14,27.5 Z" id="Path" fill="#FFD740"></path>
                <path d="M14,28 C6.28,28 0,21.72 0,14 C0,6.28 6.28,0 14,0 C21.72,0 28,6.28 28,14 C28,21.72 21.72,28 14,28 Z M14,1 C6.832,1 1,6.832 1,14 C1,21.168 6.832,27 14,27 C21.168,27 27,21.168 27,14 C27,6.832 21.168,1 14,1 Z" id="Shape" fill="#263238"></path>
            </g>
            <path d="M51.5,8.5 L47.5,8.5 C47.224,8.5 47,8.276 47,8 C47,7.724 47.224,7.5 47.5,7.5 L51.5,7.5 C51.776,7.5 52,7.724 52,8 C52,8.276 51.776,8.5 51.5,8.5 Z" id="Path" fill="#263238"></path>
            <path d="M46,3 L42,3 C41.724,3 41.5,2.776 41.5,2.5 C41.5,2.224 41.724,2 42,2 L46,2 C46.276,2 46.5,2.224 46.5,2.5 C46.5,2.776 46.276,3 46,3 Z" id="Path" fill="#263238"></path>
            <path d="M44,5 C43.724,5 43.5,4.776 43.5,4.5 L43.5,0.5 C43.5,0.224 43.724,0 44,0 C44.276,0 44.5,0.224 44.5,0.5 L44.5,4.5 C44.5,4.776 44.276,5 44,5 Z" id="Path" fill="#263238"></path>
            <path d="M49.5,10.5 C49.224,10.5 49,10.276 49,10 L49,6 C49,5.724 49.224,5.5 49.5,5.5 C49.776,5.5 50,5.724 50,6 L50,10 C50,10.276 49.776,10.5 49.5,10.5 Z" id="Path" fill="#263238"></path>
            <path d="M31.316,59 C29.496,59 27.664,58.527 26.01,57.559 L20.518,54.339 C19.063,53.485 17.401,53.034 15.713,53.034 L12.928,53.034 C12.652,53.034 12.428,52.81 12.428,52.534 C12.428,52.258 12.652,52.034 12.928,52.034 L15.713,52.034 C17.578,52.034 19.415,52.533 21.024,53.475 L26.516,56.695 C30.244,58.883 34.982,58.273 38.037,55.217 L48.484,44.77 C49.263,43.991 49.263,42.721 48.484,41.942 C47.728,41.186 46.412,41.186 45.656,41.942 L41.413,46.184 C41.218,46.379 40.901,46.379 40.706,46.184 C40.511,45.989 40.511,45.672 40.706,45.477 L44.949,41.235 C46.082,40.102 48.058,40.102 49.191,41.235 C50.361,42.405 50.361,44.307 49.191,45.477 L38.745,55.925 C36.723,57.947 34.033,59 31.316,59 Z" id="Path" fill="#263238"></path>
            <g id="Group" transform="translate(2.929000, 38.034000)">
                <path d="M0.5,1.5 L0.5,16 C0.5,16.552 0.948,17 1.5,17 L7,17 C7.552,17 8,16.552 8,16 L8,1.5 C8,0.948 7.552,0.5 7,0.5 L1.5,0.5 C0.948,0.5 0.5,0.948 0.5,1.5 Z" id="Path" fill="#40C4FF"></path>
                <path d="M7,17.5 L1.5,17.5 C0.673,17.5 0,16.827 0,16 L0,1.5 C0,0.673 0.673,0 1.5,0 L7,0 C7.827,0 8.5,0.673 8.5,1.5 L8.5,16 C8.5,16.827 7.827,17.5 7,17.5 Z M1.5,1 C1.225,1 1,1.225 1,1.5 L1,16 C1,16.275 1.225,16.5 1.5,16.5 L7,16.5 C7.275,16.5 7.5,16.275 7.5,16 L7.5,1.5 C7.5,1.225 7.275,1 7,1 L1.5,1 Z" id="Shape" fill="#263238"></path>
            </g>
            <path d="M35.929,50.534 L29.429,50.534 C29.153,50.534 28.929,50.31 28.929,50.034 C28.929,49.758 29.153,49.534 29.429,49.534 L35.929,49.534 C37.032,49.534 37.929,48.637 37.929,47.534 C37.929,46.431 37.032,45.534 35.929,45.534 L28.929,45.534 C28.868,45.534 28.808,45.523 28.751,45.501 L20.831,42.483 C19.176,41.853 17.438,41.534 15.669,41.534 L12.929,41.534 C12.653,41.534 12.429,41.31 12.429,41.034 C12.429,40.758 12.653,40.534 12.929,40.534 L15.669,40.534 C17.561,40.534 19.417,40.876 21.187,41.549 L29.021,44.534 L35.929,44.534 C37.583,44.534 38.929,45.88 38.929,47.534 C38.929,49.188 37.583,50.534 35.929,50.534 Z" id="Path" fill="#263238"></path>
            <path d="M13.5,31.375 L3.5,31.375 C3.224,31.375 3,31.151 3,30.875 C3,30.599 3.224,30.375 3.5,30.375 L13.5,30.375 C13.776,30.375 14,30.599 14,30.875 C14,31.151 13.776,31.375 13.5,31.375 Z" id="Path" fill="#263238"></path>
            <path d="M1.5,31.375 L0.5,31.375 C0.224,31.375 0,31.151 0,30.875 C0,30.599 0.224,30.375 0.5,30.375 L1.5,30.375 C1.776,30.375 2,30.599 2,30.875 C2,31.151 1.776,31.375 1.5,31.375 Z" id="Path" fill="#263238"></path>
            <path d="M49.5,31.375 L39.5,31.375 C39.224,31.375 39,31.151 39,30.875 C39,30.599 39.224,30.375 39.5,30.375 L49.5,30.375 C49.776,30.375 50,30.599 50,30.875 C50,31.151 49.776,31.375 49.5,31.375 Z" id="Path" fill="#263238"></path>
            <path d="M52.5,31.375 L51.5,31.375 C51.224,31.375 51,31.151 51,30.875 C51,30.599 51.224,30.375 51.5,30.375 L52.5,30.375 C52.776,30.375 53,30.599 53,30.875 C53,31.151 52.776,31.375 52.5,31.375 Z" id="Path" fill="#263238"></path>
            <path d="M23.75,18.969 C22.096,18.969 20.75,17.623 20.75,15.969 C20.75,14.315 22.096,12.969 23.75,12.969 C25.404,12.969 26.75,14.315 26.75,15.969 C26.75,17.623 25.404,18.969 23.75,18.969 Z M23.75,13.969 C22.647,13.969 21.75,14.866 21.75,15.969 C21.75,17.072 22.647,17.969 23.75,17.969 C24.853,17.969 25.75,17.072 25.75,15.969 C25.75,14.866 24.853,13.969 23.75,13.969 Z" id="Shape" fill="#263238"></path>
            <path d="M30.75,25.969 C29.096,25.969 27.75,24.623 27.75,22.969 C27.75,21.315 29.096,19.969 30.75,19.969 C32.404,19.969 33.75,21.315 33.75,22.969 C33.75,24.623 32.404,25.969 30.75,25.969 Z M30.75,20.969 C29.647,20.969 28.75,21.866 28.75,22.969 C28.75,24.072 29.647,24.969 30.75,24.969 C31.853,24.969 32.75,24.072 32.75,22.969 C32.75,21.866 31.853,20.969 30.75,20.969 Z" id="Shape" fill="#263238"></path>
            <path d="M21.25,25.969 C21.122,25.969 20.994,25.92 20.896,25.823 C20.701,25.628 20.701,25.311 20.896,25.116 L32.896,13.116 C33.091,12.921 33.408,12.921 33.603,13.116 C33.798,13.311 33.798,13.628 33.603,13.823 L21.603,25.823 C21.506,25.92 21.378,25.969 21.25,25.969 Z" id="Path" fill="#263238"></path>
        </g>
    </g>
</svg>