<?xml version="1.0" encoding="UTF-8"?>
<svg width="57px" height="55px" viewBox="0 0 57 55" version="1.1" xmlns="http://www.w3.org/2000/svg" xmlns:xlink="http://www.w3.org/1999/xlink">
    <title>costs-revenues-chart@3x</title>
    <g id="Page-1" stroke="none" stroke-width="1" fill="none" fill-rule="evenodd">
        <g id="costs-revenues-chart" fill-rule="nonzero">
            <path d="M47.5,3 L43.5,3 C43.224,3 43,2.776 43,2.5 C43,2.224 43.224,2 43.5,2 L47.5,2 C47.776,2 48,2.224 48,2.5 C48,2.776 47.776,3 47.5,3 Z" id="Path" fill="#263238"></path>
            <path d="M45.5,5 C45.224,5 45,4.776 45,4.5 L45,0.5 C45,0.224 45.224,0 45.5,0 C45.776,0 46,0.224 46,0.5 L46,4.5 C46,4.776 45.776,5 45.5,5 Z" id="Path" fill="#263238"></path>
            <path d="M56.5,8 L52.5,8 C52.224,8 52,7.776 52,7.5 C52,7.224 52.224,7 52.5,7 L56.5,7 C56.776,7 57,7.224 57,7.5 C57,7.776 56.776,8 56.5,8 Z" id="Path" fill="#263238"></path>
            <path d="M54.5,10 C54.224,10 54,9.776 54,9.5 L54,5.5 C54,5.224 54.224,5 54.5,5 C54.776,5 55,5.224 55,5.5 L55,9.5 C55,9.776 54.776,10 54.5,10 Z" id="Path" fill="#263238"></path>
            <path d="M56.5,52.5 L0.5,52.5 C0.224,52.5 0,52.276 0,52 L0,1 C0,0.724 0.224,0.5 0.5,0.5 C0.776,0.5 1,0.724 1,1 L1,51.5 L56.5,51.5 C56.776,51.5 57,51.724 57,52 C57,52.276 56.776,52.5 56.5,52.5 Z" id="Path" fill="#263238"></path>
            <path d="M8.5,55 C8.224,55 8,54.776 8,54.5 L8,52 C8,51.724 8.224,51.5 8.5,51.5 C8.776,51.5 9,51.724 9,52 L9,54.5 C9,54.776 8.776,55 8.5,55 Z" id="Path" fill="#263238"></path>
            <path d="M18.5,55 C18.224,55 18,54.776 18,54.5 L18,52 C18,51.724 18.224,51.5 18.5,51.5 C18.776,51.5 19,51.724 19,52 L19,54.5 C19,54.776 18.776,55 18.5,55 Z" id="Path" fill="#263238"></path>
            <path d="M28.5,55 C28.224,55 28,54.776 28,54.5 L28,52 C28,51.724 28.224,51.5 28.5,51.5 C28.776,51.5 29,51.724 29,52 L29,54.5 C29,54.776 28.776,55 28.5,55 Z" id="Path" fill="#263238"></path>
            <path d="M38.5,55 C38.224,55 38,54.776 38,54.5 L38,52 C38,51.724 38.224,51.5 38.5,51.5 C38.776,51.5 39,51.724 39,52 L39,54.5 C39,54.776 38.776,55 38.5,55 Z" id="Path" fill="#263238"></path>
            <path d="M48.5,55 C48.224,55 48,54.776 48,54.5 L48,52 C48,51.724 48.224,51.5 48.5,51.5 C48.776,51.5 49,51.724 49,52 L49,54.5 C49,54.776 48.776,55 48.5,55 Z" id="Path" fill="#263238"></path>
            <g id="Group" transform="translate(4.869000, 30.613932)">
                <path d="M13.662,13.5020683 L2,13.5020683 C1.171,13.5020683 0.5,12.8310683 0.5,12.0020683 C0.5,11.1730683 1.171,10.5020683 2,10.5020683 L13.662,10.5020683 C24.084,10.5020683 34.341,7.70906834 43.322,2.42506834 L46.24,0.709068345 C46.953,0.288068345 47.873,0.526068345 48.293,1.24206834 C48.713,1.95606834 48.475,2.87506834 47.76,3.29506834 L44.843,5.01106834 C35.401,10.5660683 24.618,13.5020683 13.662,13.5020683 Z" id="Path" fill="#FF5252"></path>
                <path d="M13.662,14.0020683 L2,14.0020683 C0.897,14.0020683 3.55271368e-15,13.1050683 3.55271368e-15,12.0020683 C3.55271368e-15,10.8990683 0.897,10.0020683 2,10.0020683 L13.662,10.0020683 C23.995,10.0020683 34.164,7.23306834 43.069,1.99406834 L45.987,0.278068345 C46.445,0.00706834477 46.984,-0.0699316552 47.501,0.0650683448 C48.019,0.199068345 48.454,0.527068345 48.725,0.989068345 C48.996,1.44906834 49.071,1.98706834 48.937,2.50406834 C48.803,3.02206834 48.475,3.45506834 48.015,3.72606834 L45.098,5.44206834 C35.578,11.0420683 24.708,14.0020683 13.662,14.0020683 Z M2,11.0020683 C1.449,11.0020683 1,11.4510683 1,12.0020683 C1,12.5530683 1.449,13.0020683 2,13.0020683 L13.662,13.0020683 C24.53,13.0020683 35.225,10.0900683 44.59,4.58006834 L47.507,2.86406834 C47.737,2.72906834 47.901,2.51206834 47.968,2.25306834 C48.035,1.99506834 47.998,1.72606834 47.862,1.49506834 C47.726,1.26406834 47.509,1.09906834 47.25,1.03306834 C46.991,0.966068345 46.724,1.00406834 46.494,1.14006834 L43.575,2.85606834 C34.517,8.18506834 24.173,11.0020683 13.661,11.0020683 L2,11.0020683 Z" id="Shape" fill="#263238"></path>
            </g>
            <g id="Group" transform="translate(4.869686, 13.618118)">
                <path d="M1.99931351,30.4988819 C1.34931351,30.4988819 0.750313507,30.0738819 0.560313507,29.4178819 C0.328313507,28.6228819 0.785313507,27.7898819 1.58031351,27.5578819 L11.1803135,24.7578819 C20.1573135,22.1388819 28.1903135,16.5778819 33.8003135,9.09788195 L39.8003135,1.09788195 C40.2993135,0.434881947 41.2393135,0.301881947 41.9003135,0.797881947 C42.5633135,1.29488195 42.6973135,2.23588195 42.2003135,2.89788195 L36.2003135,10.8978819 C30.2033135,18.8938819 21.6163135,24.8388819 12.0203135,27.6378819 L2.42031351,30.4378819 C2.27931351,30.4788819 2.13731351,30.4988819 1.99931351,30.4988819 Z" id="Path" fill="#40C4FF"></path>
                <path d="M1.99931351,30.9988819 C1.11631351,30.9988819 0.327313507,30.4068819 0.0803135072,29.5578819 C-0.228686493,28.4988819 0.381313507,27.3868819 1.44031351,27.0788819 L11.0403135,24.2788819 C19.9143135,21.6908819 27.8553135,16.1928819 33.4003135,8.79888195 L39.4003135,0.798881947 C40.0633135,-0.0831180532 41.3193135,-0.262118053 42.2003135,0.398881947 C42.6283135,0.718881947 42.9053135,1.18688195 42.9803135,1.71588195 C43.0563135,2.24488195 42.9213135,2.77188195 42.6003135,3.19888195 L36.6003135,11.1988819 C30.5393135,19.2808819 21.8603135,25.2898819 12.1603135,28.1188819 L2.56031351,30.9188819 C2.37731351,30.9708819 2.18831351,30.9988819 1.99931351,30.9988819 Z M41.0013135,0.998881947 C40.6973135,0.998881947 40.3963135,1.13688195 40.1983135,1.39888195 L34.1983135,9.39888195 C28.5243135,16.9648819 20.3993135,22.5898819 11.3193135,25.2388819 L1.71931351,28.0388819 C1.19031351,28.1928819 0.885313507,28.7488819 1.03931351,29.2788819 C1.18931351,29.7938819 1.75931351,30.1118819 2.27831351,29.9588819 L11.8793135,27.1588819 C21.3733135,24.3888819 29.8673135,18.5088819 35.7993135,10.5988819 L41.7993135,2.59888195 C41.9593135,2.38488195 42.0273135,2.12188195 41.9883135,1.85688195 C41.9503135,1.59288195 41.8123135,1.35788195 41.5983135,1.19788195 C41.4203135,1.06388195 41.2103135,0.998881947 41.0013135,0.998881947 Z" id="Shape" fill="#263238"></path>
            </g>
            <path d="M18.5,14.5 C18.224,14.5 18,14.276 18,14 L18,12.5 C18,12.224 18.224,12 18.5,12 C18.776,12 19,12.224 19,12.5 L19,14 C19,14.276 18.776,14.5 18.5,14.5 Z" id="Path" fill="#263238"></path>
            <path d="M18.5,21 C18.224,21 18,20.776 18,20.5 L18,19 C18,18.724 18.224,18.5 18.5,18.5 C18.776,18.5 19,18.724 19,19 L19,20.5 C19,20.776 18.776,21 18.5,21 Z" id="Path" fill="#263238"></path>
            <path d="M19.25,19.5 L16.5,19.5 C16.224,19.5 16,19.276 16,19 C16,18.724 16.224,18.5 16.5,18.5 L19.25,18.5 C19.664,18.5 20,18.164 20,17.75 C20,17.336 19.664,17 19.25,17 L17.75,17 C16.785,17 16,16.215 16,15.25 C16,14.285 16.785,13.5 17.75,13.5 L20,13.5 C20.276,13.5 20.5,13.724 20.5,14 C20.5,14.276 20.276,14.5 20,14.5 L17.75,14.5 C17.336,14.5 17,14.836 17,15.25 C17,15.664 17.336,16 17.75,16 L19.25,16 C20.215,16 21,16.785 21,17.75 C21,18.715 20.215,19.5 19.25,19.5 Z" id="Path" fill="#263238"></path>
            <path d="M42,45 L40,45 C39.724,45 39.5,44.776 39.5,44.5 C39.5,44.224 39.724,44 40,44 L42,44 C42.276,44 42.5,44.224 42.5,44.5 C42.5,44.776 42.276,45 42,45 Z" id="Path" fill="#263238"></path>
            <path d="M56.5,45 L44,45 C43.724,45 43.5,44.776 43.5,44.5 C43.5,44.224 43.724,44 44,44 L56.5,44 C56.776,44 57,44.224 57,44.5 C57,44.776 56.776,45 56.5,45 Z" id="Path" fill="#263238"></path>
            <g id="Group" transform="translate(6.000000, 4.000000)">
                <path d="M4.5,12.5 C4.5,8.082 8.082,4.5 12.5,4.5 L12.5,0.5 C5.873,0.5 0.5,5.873 0.5,12.5 C0.5,19.127 5.873,24.5 12.5,24.5 L12.5,20.5 C8.082,20.5 4.5,16.918 4.5,12.5 Z" id="Path" fill="#FFD740"></path>
                <path d="M12.5,25 C5.607,25 0,19.393 0,12.5 C0,5.607 5.607,0 12.5,0 C12.776,0 13,0.224 13,0.5 L13,4.5 C13,4.776 12.776,5 12.5,5 C8.364,5 5,8.364 5,12.5 C5,16.636 8.364,20 12.5,20 C12.776,20 13,20.224 13,20.5 L13,24.5 C13,24.776 12.776,25 12.5,25 Z M12,1.011 C5.89,1.274 1,6.327 1,12.5 C1,18.673 5.89,23.727 12,23.989 L12,20.985 C7.545,20.725 4,17.019 4,12.5 C4,7.981 7.545,4.274 12,4.015 L12,1.011 Z" id="Shape" fill="#263238"></path>
            </g>
            <path d="M18.5,29 C18.224,29 18,28.776 18,28.5 L18,24.5 C18,24.224 18.224,24 18.5,24 C22.636,24 26,20.636 26,16.5 C26,12.364 22.636,9 18.5,9 C18.224,9 18,8.776 18,8.5 L18,4.5 C18,4.224 18.224,4 18.5,4 C25.393,4 31,9.607 31,16.5 C31,23.393 25.393,29 18.5,29 Z M19,24.985 L19,27.989 C25.11,27.726 30,22.673 30,16.5 C30,10.327 25.11,5.273 19,5.011 L19,8.015 C23.455,8.275 27,11.981 27,16.5 C27,21.019 23.455,24.726 19,24.985 Z" id="Shape" fill="#263238"></path>
        </g>
    </g>
</svg>