<?xml version="1.0" encoding="UTF-8"?>
<svg width="55px" height="64px" viewBox="0 0 55 64" version="1.1" xmlns="http://www.w3.org/2000/svg" xmlns:xlink="http://www.w3.org/1999/xlink">
    <title>customer-service@3x</title>
    <g id="Page-1" stroke="none" stroke-width="1" fill="none" fill-rule="evenodd">
        <g id="customer-service" fill-rule="nonzero">
            <path d="M11,40 L3.5,40 C3.224,40 3,39.776 3,39.5 C3,39.224 3.224,39 3.5,39 L11,39 C11.276,39 11.5,39.224 11.5,39.5 C11.5,39.776 11.276,40 11,40 Z" id="Path" fill="#263238"></path>
            <path d="M1.5,40 L0.5,40 C0.224,40 0,39.776 0,39.5 C0,39.224 0.224,39 0.5,39 L1.5,39 C1.776,39 2,39.224 2,39.5 C2,39.776 1.776,40 1.5,40 Z" id="Path" fill="#263238"></path>
            <path d="M51.5,40 L44,40 C43.724,40 43.5,39.776 43.5,39.5 C43.5,39.224 43.724,39 44,39 L51.5,39 C51.776,39 52,39.224 52,39.5 C52,39.776 51.776,40 51.5,40 Z" id="Path" fill="#263238"></path>
            <path d="M54.5,40 L53.5,40 C53.224,40 53,39.776 53,39.5 C53,39.224 53.224,39 53.5,39 L54.5,39 C54.776,39 55,39.224 55,39.5 C55,39.776 54.776,40 54.5,40 Z" id="Path" fill="#263238"></path>
            <path d="M27.5,39 C22.113,39 17.509,35.333 16.302,30.083 C16.24,29.814 16.408,29.546 16.677,29.484 C16.947,29.423 17.214,29.59 17.276,29.859 C18.378,34.652 22.582,38 27.5,38 C32.418,38 36.622,34.652 37.724,29.859 C37.786,29.59 38.056,29.423 38.323,29.484 C38.593,29.546 38.761,29.814 38.698,30.083 C37.491,35.333 32.887,39 27.5,39 Z" id="Path" fill="#263238"></path>
            <g id="Group" transform="translate(16.500000, 19.500000)">
                <path d="M1,7 L0.5,7 L0.5,0.5 L3.5,0.5 L3.5,4.5 C3.5,5.881 2.381,7 1,7 Z" id="Path" fill="#FFD740"></path>
                <path d="M1,7.5 L0.5,7.5 C0.224,7.5 0,7.276 0,7 L0,0.5 C0,0.224 0.224,0 0.5,0 L3.5,0 C3.776,0 4,0.224 4,0.5 L4,4.5 C4,6.154 2.654,7.5 1,7.5 Z M1,1 L1,6.5 C2.103,6.5 3,5.603 3,4.5 L3,1 L1,1 Z" id="Shape" fill="#263238"></path>
            </g>
            <g id="Group" transform="translate(16.500000, 8.999792)">
                <path d="M18,11.0002075 L0.5,11.0002075 L0.5,11.0002075 C0.5,6.85820754 3.858,3.50020754 8,3.50020754 L13.205,3.50020754 C15.376,3.50020754 17.52,3.02920754 19.491,2.11920754 L23,0.500207543 L23,6.00020754 C23,8.76120754 20.761,11.0002075 18,11.0002075 Z" id="Path" fill="#FFD740"></path>
                <path d="M18,11.5002075 L0.5,11.5002075 C0.224,11.5002075 0,11.2762075 0,11.0002075 C0,6.58920754 3.589,3.00020754 8,3.00020754 L13.206,3.00020754 C15.289,3.00020754 17.39,2.53920754 19.282,1.66520754 L22.791,0.0462075428 C22.946,-0.0257924572 23.127,-0.0127924572 23.27,0.0792075428 C23.413,0.171207543 23.5,0.330207543 23.5,0.500207543 L23.5,6.00020754 C23.5,9.03320754 21.033,11.5002075 18,11.5002075 Z M1.018,10.5002075 L18,10.5002075 C20.481,10.5002075 22.5,8.48120754 22.5,6.00020754 L22.5,1.28120754 L19.701,2.57320754 C17.679,3.50620754 15.433,4.00020754 13.206,4.00020754 L8,4.00020754 C4.309,4.00020754 1.275,6.87320754 1.018,10.5002075 Z" id="Shape" fill="#263238"></path>
            </g>
            <g id="Group" transform="translate(34.500000, 18.065628)">
                <path d="M0.5,1.8833717 L0.5,5.9343717 C0.5,7.3153717 1.619,8.4343717 3,8.4343717 L3.5,8.4343717 L3.5,0.499371697 C2.711,1.2733717 1.662,1.7663717 0.5,1.8833717 Z" id="Path" fill="#FFD740"></path>
                <path d="M3.5,8.9343717 L3,8.9343717 C1.346,8.9343717 0,7.5883717 0,5.9343717 L0,1.8843717 C0,1.6273717 0.194,1.4123717 0.45,1.3863717 C1.479,1.2823717 2.438,0.841371697 3.15,0.142371697 C3.294,0.00237169722 3.508,-0.0386283028 3.693,0.0383716972 C3.879,0.116371697 4,0.298371697 4,0.499371697 L4,8.4343717 C4,8.7103717 3.776,8.9343717 3.5,8.9343717 Z M1,2.3173717 L1,5.9343717 C1,7.0373717 1.897,7.9343717 3,7.9343717 L3,1.5333717 C2.399,1.9183717 1.718,2.1863717 1,2.3173717 Z" id="Shape" fill="#263238"></path>
            </g>
            <path d="M27.5,32.998 C26.091,32.998 24.683,32.462 23.611,31.39 C23.416,31.195 23.416,30.878 23.611,30.683 C23.806,30.488 24.123,30.488 24.318,30.683 C26.073,32.438 28.927,32.438 30.682,30.683 C30.877,30.488 31.194,30.488 31.389,30.683 C31.584,30.878 31.584,31.195 31.389,31.39 C30.317,32.461 28.909,32.998 27.5,32.998 Z" id="Path" fill="#263238"></path>
            <path d="M40,24 C39.724,24 39.5,23.776 39.5,23.5 L39.5,20.427 C39.5,20.088 39.486,19.752 39.458,19.42 C39.435,19.145 39.639,18.903 39.915,18.88 C40.199,18.85 40.432,19.062 40.455,19.337 C40.485,19.696 40.5,20.06 40.5,20.427 L40.5,23.5 C40.5,23.776 40.276,24 40,24 Z" id="Path" fill="#263238"></path>
            <path d="M15,24 C14.724,24 14.5,23.776 14.5,23.5 L14.5,20.427 C14.5,13.259 20.332,7.427 27.5,7.427 C29.9,7.427 32.246,8.087 34.283,9.335 C34.518,9.479 34.593,9.787 34.448,10.023 C34.304,10.258 33.996,10.332 33.76,10.188 C31.88,9.037 29.715,8.428 27.499,8.428 C20.882,8.428 15.499,13.811 15.499,20.428 L15.499,23.5 C15.5,23.776 15.276,24 15,24 Z" id="Path" fill="#263238"></path>
            <g id="Group" transform="translate(10.500000, 23.000000)">
                <path d="M4.5,8.5 L3,8.5 C1.619,8.5 0.5,7.381 0.5,6 L0.5,3 C0.5,1.619 1.619,0.5 3,0.5 L4.5,0.5 L4.5,8.5 Z" id="Path" fill="#40C4FF"></path>
                <path d="M4.5,9 L3,9 C1.346,9 0,7.654 0,6 L0,3 C0,1.346 1.346,0 3,0 L4.5,0 C4.776,0 5,0.224 5,0.5 L5,8.5 C5,8.776 4.776,9 4.5,9 Z M3,1 C1.897,1 1,1.897 1,3 L1,6 C1,7.103 1.897,8 3,8 L4,8 L4,1 L3,1 Z" id="Shape" fill="#263238"></path>
            </g>
            <g id="Group" transform="translate(39.500000, 23.000000)">
                <path d="M0.5,0.5 L2,0.5 C3.381,0.5 4.5,1.619 4.5,3 L4.5,6 C4.5,7.381 3.381,8.5 2,8.5 L0.5,8.5 L0.5,0.5 Z" id="Path" fill="#40C4FF"></path>
                <path d="M2,9 L0.5,9 C0.224,9 0,8.776 0,8.5 L0,0.5 C0,0.224 0.224,0 0.5,0 L2,0 C3.654,0 5,1.346 5,3 L5,6 C5,7.654 3.654,9 2,9 Z M1,8 L2,8 C3.103,8 4,7.103 4,6 L4,3 C4,1.897 3.103,1 2,1 L1,1 L1,8 Z" id="Shape" fill="#263238"></path>
            </g>
            <path d="M30,42 L27.5,42 C27.224,42 27,41.776 27,41.5 C27,41.224 27.224,41 27.5,41 L30,41 C35.238,41 39.5,36.738 39.5,31.5 C39.5,31.224 39.724,31 40,31 C40.276,31 40.5,31.224 40.5,31.5 C40.5,37.29 35.79,42 30,42 Z" id="Path" fill="#263238"></path>
            <path d="M37.5,64 C37.224,64 37,63.776 37,63.5 L37,53.5 C37,53.224 37.224,53 37.5,53 C37.776,53 38,53.224 38,53.5 L38,63.5 C38,63.776 37.776,64 37.5,64 Z" id="Path" fill="#263238"></path>
            <path d="M17.5,64 C17.224,64 17,63.776 17,63.5 L17,53.5 C17,53.224 17.224,53 17.5,53 C17.776,53 18,53.224 18,53.5 L18,63.5 C18,63.776 17.776,64 17.5,64 Z" id="Path" fill="#263238"></path>
            <path d="M9.5,64 C9.224,64 9,63.776 9,63.5 L9,50.445 C9,47.241 10.903,44.355 13.849,43.092 L23.304,39.04 C23.555,38.93 23.851,39.048 23.96,39.303 C24.069,39.556 23.951,39.85 23.697,39.959 L14.242,44.011 C11.665,45.116 10,47.641 10,50.445 L10,63.5 C10,63.776 9.776,64 9.5,64 Z" id="Path" fill="#263238"></path>
            <path d="M45.5,64 C45.224,64 45,63.776 45,63.5 L45,50.445 C45,47.641 43.335,45.115 40.758,44.011 L36.252,42.08 C35.998,41.971 35.88,41.677 35.989,41.424 C36.097,41.17 36.393,41.052 36.645,41.161 L41.151,43.092 C44.096,44.354 46,47.24 46,50.445 L46,63.5 C46,63.776 45.776,64 45.5,64 Z" id="Path" fill="#263238"></path>
            <path d="M27.5,46 L27.5,46 C27.333,46 27.177,45.917 27.084,45.777 L23.084,39.777 C23.029,39.695 23,39.599 23,39.5 L23,37.74 C23,37.575 23.082,37.42 23.218,37.327 C23.354,37.234 23.529,37.214 23.682,37.275 C26.141,38.238 28.859,38.238 31.318,37.275 C31.471,37.214 31.646,37.234 31.782,37.327 C31.919,37.42 32,37.575 32,37.74 L32,39.5 C32,39.776 31.776,40 31.5,40 C31.224,40 31,39.776 31,39.5 L31,38.449 C28.728,39.181 26.272,39.181 24,38.449 L24,39.349 L27.5,44.599 L28.417,43.223 C28.569,42.993 28.879,42.931 29.11,43.084 C29.34,43.237 29.402,43.548 29.249,43.777 L27.916,45.777 C27.823,45.917 27.667,46 27.5,46 Z" id="Path" fill="#263238"></path>
            <g id="Group" transform="translate(29.000000, 53.000000)">
                <rect id="Rectangle" fill="#FF5252" x="0.5" y="0.5" width="6" height="2.5"></rect>
                <path d="M6.5,3.5 L0.5,3.5 C0.224,3.5 0,3.276 0,3 L0,0.5 C0,0.224 0.224,0 0.5,0 L6.5,0 C6.776,0 7,0.224 7,0.5 L7,3 C7,3.276 6.776,3.5 6.5,3.5 Z M1,2.5 L6,2.5 L6,1 L1,1 L1,2.5 Z" id="Shape" fill="#263238"></path>
            </g>
            <path d="M42.5,3 L38.5,3 C38.224,3 38,2.776 38,2.5 C38,2.224 38.224,2 38.5,2 L42.5,2 C42.776,2 43,2.224 43,2.5 C43,2.776 42.776,3 42.5,3 Z" id="Path" fill="#263238"></path>
            <path d="M40.5,5 C40.224,5 40,4.776 40,4.5 L40,0.5 C40,0.224 40.224,0 40.5,0 C40.776,0 41,0.224 41,0.5 L41,4.5 C41,4.776 40.776,5 40.5,5 Z" id="Path" fill="#263238"></path>
            <path d="M49.5,9.5 L45.5,9.5 C45.224,9.5 45,9.276 45,9 C45,8.724 45.224,8.5 45.5,8.5 L49.5,8.5 C49.776,8.5 50,8.724 50,9 C50,9.276 49.776,9.5 49.5,9.5 Z" id="Path" fill="#263238"></path>
            <path d="M47.5,11.5 C47.224,11.5 47,11.276 47,11 L47,7 C47,6.724 47.224,6.5 47.5,6.5 C47.776,6.5 48,6.724 48,7 L48,11 C48,11.276 47.776,11.5 47.5,11.5 Z" id="Path" fill="#263238"></path>
            <path d="M27.5,64 C27.224,64 27,63.776 27,63.5 L27,45.5 C27,45.224 27.224,45 27.5,45 C27.776,45 28,45.224 28,45.5 L28,63.5 C28,63.776 27.776,64 27.5,64 Z" id="Path" fill="#263238"></path>
        </g>
    </g>
</svg>