<?xml version="1.0" encoding="UTF-8"?>
<svg width="55px" height="57px" viewBox="0 0 55 57" version="1.1" xmlns="http://www.w3.org/2000/svg" xmlns:xlink="http://www.w3.org/1999/xlink">
    <title>data-report@3x</title>
    <g id="Page-1" stroke="none" stroke-width="1" fill="none" fill-rule="evenodd">
        <g id="data-report" fill-rule="nonzero">
            <path d="M46.5,15 L39,15 C37.346,15 36,13.654 36,12 L36,4.5 C36,4.298 36.122,4.115 36.309,4.038 C36.495,3.962 36.711,4.004 36.854,4.146 L46.854,14.146 C46.997,14.289 47.04,14.504 46.962,14.691 C46.884,14.878 46.702,15 46.5,15 Z M37,5.707 L37,12 C37,13.103 37.897,14 39,14 L45.293,14 L37,5.707 Z" id="Shape" fill="#263238"></path>
            <path d="M44.5,3.5 L40.5,3.5 C40.224,3.5 40,3.276 40,3 C40,2.724 40.224,2.5 40.5,2.5 L44.5,2.5 C44.776,2.5 45,2.724 45,3 C45,3.276 44.776,3.5 44.5,3.5 Z" id="Path" fill="#263238"></path>
            <path d="M42.5,5.5 C42.224,5.5 42,5.276 42,5 L42,1 C42,0.724 42.224,0.5 42.5,0.5 C42.776,0.5 43,0.724 43,1 L43,5 C43,5.276 42.776,5.5 42.5,5.5 Z" id="Path" fill="#263238"></path>
            <path d="M50.5,9 L46.5,9 C46.224,9 46,8.776 46,8.5 C46,8.224 46.224,8 46.5,8 L50.5,8 C50.776,8 51,8.224 51,8.5 C51,8.776 50.776,9 50.5,9 Z" id="Path" fill="#263238"></path>
            <path d="M48.5,11 C48.224,11 48,10.776 48,10.5 L48,6.5 C48,6.224 48.224,6 48.5,6 C48.776,6 49,6.224 49,6.5 L49,10.5 C49,10.776 48.776,11 48.5,11 Z" id="Path" fill="#263238"></path>
            <path d="M1.5,1 L0.5,1 C0.224,1 0,0.776 0,0.5 C0,0.224 0.224,0 0.5,0 L1.5,0 C1.776,0 2,0.224 2,0.5 C2,0.776 1.776,1 1.5,1 Z" id="Path" fill="#263238"></path>
            <path d="M19.5,1 L3.5,1 C3.224,1 3,0.776 3,0.5 C3,0.224 3.224,0 3.5,0 L19.5,0 C19.776,0 20,0.224 20,0.5 C20,0.776 19.776,1 19.5,1 Z" id="Path" fill="#263238"></path>
            <path d="M54.5,57 L53.5,57 C53.224,57 53,56.776 53,56.5 C53,56.224 53.224,56 53.5,56 L54.5,56 C54.776,56 55,56.224 55,56.5 C55,56.776 54.776,57 54.5,57 Z" id="Path" fill="#263238"></path>
            <path d="M51.5,57 L35.5,57 C35.224,57 35,56.776 35,56.5 C35,56.224 35.224,56 35.5,56 L51.5,56 C51.776,56 52,56.224 52,56.5 C52,56.776 51.776,57 51.5,57 Z" id="Path" fill="#263238"></path>
            <path d="M44,53 L9,53 C7.346,53 6,51.654 6,50 L6,7 C6,5.346 7.346,4 9,4 L36.5,4 C36.633,4 36.76,4.053 36.854,4.146 L46.854,14.146 C46.947,14.24 47,14.367 47,14.5 L47,50 C47,51.654 45.654,53 44,53 Z M9,5 C7.897,5 7,5.897 7,7 L7,50 C7,51.103 7.897,52 9,52 L44,52 C45.103,52 46,51.103 46,50 L46,14.707 L36.293,5 L9,5 Z" id="Shape" fill="#263238"></path>
            <g id="Group" transform="translate(19.635750, 20.500000)">
                <path d="M0.50025,6.864 C2.12925,8.493 4.37925,9.5 6.86425,9.5 C11.83525,9.5 15.86425,5.47 15.86425,0.5 L6.86425,0.5 L0.50025,6.864 Z" id="Path" fill="#FF5252"></path>
                <path d="M6.86425,10 C4.32625,10 1.94025,9.012 0.14625,7.218 C-0.04875,7.023 -0.04875,6.706 0.14625,6.511 L6.51025,0.147 C6.60425,0.053 6.73125,0 6.86425,0 L15.86425,0 C16.14025,0 16.36425,0.224 16.36425,0.5 C16.36425,5.738 12.10225,10 6.86425,10 Z M1.21725,6.854 C2.77425,8.241 4.76025,9 6.86425,9 C11.38325,9 15.09025,5.455 15.34925,1 L7.07125,1 L1.21725,6.854 Z" id="Shape" fill="#263238"></path>
            </g>
            <path d="M37.5,39.5 L15.5,39.5 C15.224,39.5 15,39.276 15,39 L15,35 C15,34.724 15.224,34.5 15.5,34.5 L37.5,34.5 C37.776,34.5 38,34.724 38,35 L38,39 C38,39.276 37.776,39.5 37.5,39.5 Z M16,38.5 L37,38.5 L37,35.5 L16,35.5 L16,38.5 Z" id="Shape" fill="#263238"></path>
            <g id="Group" transform="translate(15.000000, 34.500000)">
                <rect id="Rectangle" fill="#40C4FF" x="0.5" y="0.5" width="6" height="4"></rect>
                <path d="M6.5,5 L0.5,5 C0.224,5 0,4.776 0,4.5 L0,0.5 C0,0.224 0.224,0 0.5,0 L6.5,0 C6.776,0 7,0.224 7,0.5 L7,4.5 C7,4.776 6.776,5 6.5,5 Z M1,4 L6,4 L6,1 L1,1 L1,4 Z" id="Shape" fill="#263238"></path>
            </g>
            <path d="M37.5,46.5 L15.5,46.5 C15.224,46.5 15,46.276 15,46 L15,42 C15,41.724 15.224,41.5 15.5,41.5 L37.5,41.5 C37.776,41.5 38,41.724 38,42 L38,46 C38,46.276 37.776,46.5 37.5,46.5 Z M16,45.5 L37,45.5 L37,42.5 L16,42.5 L16,45.5 Z" id="Shape" fill="#263238"></path>
            <g id="Group" transform="translate(15.000000, 41.500000)">
                <rect id="Rectangle" fill="#40C4FF" x="0.5" y="0.5" width="6" height="4"></rect>
                <path d="M6.5,5 L0.5,5 C0.224,5 0,4.776 0,4.5 L0,0.5 C0,0.224 0.224,0 0.5,0 L6.5,0 C6.776,0 7,0.224 7,0.5 L7,4.5 C7,4.776 6.776,5 6.5,5 Z M1,4 L6,4 L6,1 L1,1 L1,4 Z" id="Shape" fill="#263238"></path>
            </g>
            <g id="Group" transform="translate(26.000000, 11.500000)">
                <path d="M0.5,0.5 L0.5,9.5 L9.5,9.5 C9.5,4.529 5.47,0.5 0.5,0.5 Z" id="Path" fill="#4DB6AC"></path>
                <path d="M9.5,10 L0.5,10 C0.224,10 0,9.776 0,9.5 L0,0.5 C0,0.224 0.224,0 0.5,0 C5.738,0 10,4.262 10,9.5 C10,9.776 9.776,10 9.5,10 Z M1,9 L8.985,9 C8.735,4.711 5.289,1.265 1,1.015 L1,9 Z" id="Shape" fill="#263238"></path>
            </g>
            <g id="Group" transform="translate(17.000000, 11.500000)">
                <path d="M9.5,9.5 L9.5,0.5 C4.529,0.5 0.5,4.529 0.5,9.5 C0.5,11.985 1.507,14.235 3.136,15.864 L9.5,9.5 Z" id="Path" fill="#FFD740"></path>
                <path d="M3.136,16.364 L3.136,16.364 C3.003,16.364 2.876,16.311 2.782,16.218 C0.988,14.423 0,12.037 0,9.5 C0,4.262 4.262,0 9.5,0 C9.776,0 10,0.224 10,0.5 L10,9.5 C10,9.633 9.947,9.76 9.854,9.854 L3.49,16.218 C3.396,16.312 3.269,16.364 3.136,16.364 Z M9,1.015 C4.545,1.275 1,4.982 1,9.5 C1,11.603 1.759,13.589 3.146,15.146 L9,9.293 L9,1.015 Z" id="Shape" fill="#263238"></path>
            </g>
        </g>
    </g>
</svg>