<?xml version="1.0" encoding="UTF-8"?>
<svg width="54px" height="57px" viewBox="0 0 54 57" version="1.1" xmlns="http://www.w3.org/2000/svg" xmlns:xlink="http://www.w3.org/1999/xlink">
    <title>money-management@3x</title>
    <g id="Page-1" stroke="none" stroke-width="1" fill="none" fill-rule="evenodd">
        <g id="money-management" fill-rule="nonzero">
            <g id="Group" transform="translate(18.251000, 23.000000)">
                <circle id="Oval" fill="#FFD740" cx="8.5" cy="8.5" r="8"></circle>
                <path d="M8.5,17 C3.813,17 0,13.187 0,8.5 C0,3.813 3.813,0 8.5,0 C13.187,0 17,3.813 17,8.5 C17,13.187 13.187,17 8.5,17 Z M8.5,1 C4.364,1 1,4.364 1,8.5 C1,12.636 4.364,16 8.5,16 C12.636,16 16,12.636 16,8.5 C16,4.364 12.636,1 8.5,1 Z" id="Shape" fill="#263238"></path>
            </g>
            <path d="M26.751,29.5 C26.475,29.5 26.251,29.276 26.251,29 L26.251,27.5 C26.251,27.224 26.475,27 26.751,27 C27.027,27 27.251,27.224 27.251,27.5 L27.251,29 C27.251,29.276 27.027,29.5 26.751,29.5 Z" id="Path" fill="#263238"></path>
            <path d="M26.751,36 C26.475,36 26.251,35.776 26.251,35.5 L26.251,34 C26.251,33.724 26.475,33.5 26.751,33.5 C27.027,33.5 27.251,33.724 27.251,34 L27.251,35.5 C27.251,35.776 27.027,36 26.751,36 Z" id="Path" fill="#263238"></path>
            <path d="M27.501,34.5 L24.75,34.5 C24.474,34.5 24.25,34.276 24.25,34 C24.25,33.724 24.474,33.5 24.75,33.5 L27.501,33.5 C27.914,33.5 28.25,33.164 28.25,32.75 C28.25,32.336 27.914,32 27.501,32 L26,32 C25.035,32 24.25,31.215 24.25,30.25 C24.25,29.285 25.035,28.5 26,28.5 L28.25,28.5 C28.526,28.5 28.75,28.724 28.75,29 C28.75,29.276 28.526,29.5 28.25,29.5 L26,29.5 C25.587,29.5 25.25,29.836 25.25,30.25 C25.25,30.664 25.587,31 26,31 L27.501,31 C28.466,31 29.25,31.785 29.25,32.75 C29.25,33.715 28.466,34.5 27.501,34.5 Z" id="Path" fill="#263238"></path>
            <g id="Group" transform="translate(5.251000, 32.500000)">
                <path d="M20,9.887 C15.13,9.22 11.28,5.372 10.614,0.5 L0.5,0.5 L0.5,15 C0.5,17.761 2.739,20 5.5,20 L20,20 L20,9.887 Z" id="Path" fill="#40C4FF"></path>
                <path d="M19.999,20.5 L5.5,20.5 C2.468,20.5 0,18.033 0,15 L0,0.5 C0,0.224 0.224,0 0.5,0 L10.613,0 C10.863,0 11.075,0.185 11.108,0.432 C11.744,5.072 15.427,8.756 20.066,9.391 C20.314,9.425 20.499,9.637 20.499,9.887 L20.499,20 C20.499,20.276 20.275,20.5 19.999,20.5 Z M1,1 L1,15 C1,17.481 3.019,19.5 5.5,19.5 L19.499,19.5 L19.499,10.314 C14.765,9.48 11.02,5.734 10.186,1 L1,1 Z" id="Shape" fill="#263238"></path>
            </g>
            <path d="M42.75,53 L28.25,53 C27.974,53 27.75,52.776 27.75,52.5 L27.75,42.386 C27.75,42.136 27.935,41.925 28.183,41.89 C32.823,41.256 36.507,37.572 37.143,32.932 C37.176,32.685 37.388,32.5 37.638,32.5 L47.75,32.5 C48.026,32.5 48.25,32.724 48.25,33 L48.25,47.5 C48.25,50.533 45.782,53 42.75,53 Z M28.75,52 L42.75,52 C45.231,52 47.25,49.981 47.25,47.5 L47.25,33.5 L38.065,33.5 C37.231,38.235 33.485,41.981 28.75,42.814 L28.75,52 Z" id="Shape" fill="#263238"></path>
            <path d="M15.864,30.5 L5.751,30.5 C5.475,30.5 5.251,30.276 5.251,30 L5.251,15.5 C5.251,12.467 7.719,10 10.751,10 L25.25,10 C25.526,10 25.75,10.224 25.75,10.5 L25.75,20.614 C25.75,20.864 25.565,21.075 25.317,21.11 C20.677,21.744 16.994,25.428 16.359,30.068 C16.326,30.315 16.114,30.5 15.864,30.5 Z M6.251,29.5 L15.437,29.5 C16.27,24.765 20.015,21.02 24.75,20.187 L24.75,11 L10.751,11 C8.27,11 6.251,13.019 6.251,15.5 L6.251,29.5 Z" id="Shape" fill="#263238"></path>
            <g id="Group" transform="translate(27.750000, 10.000000)">
                <path d="M15,0.5 L0.5,0.5 L0.5,10.613 C5.37,11.28 9.22,15.128 9.886,20 L20,20 L20,5.5 C20,2.739 17.762,0.5 15,0.5 Z" id="Path" fill="#FF5252"></path>
                <path d="M20,20.5 L9.887,20.5 C9.637,20.5 9.425,20.315 9.392,20.068 C8.757,15.428 5.074,11.744 0.433,11.109 C0.185,11.075 0,10.863 0,10.613 L0,0.5 C0,0.224 0.224,0 0.5,0 L15,0 C18.032,0 20.5,2.467 20.5,5.5 L20.5,20 C20.5,20.276 20.276,20.5 20,20.5 Z M10.314,19.5 L19.5,19.5 L19.5,5.5 C19.5,3.019 17.481,1 15,1 L1,1 L1,10.186 C5.735,11.019 9.481,14.765 10.314,19.5 Z" id="Shape" fill="#263238"></path>
            </g>
            <path d="M52.5,57 L50.5,57 C50.224,57 50,56.776 50,56.5 C50,56.224 50.224,56 50.5,56 L52.5,56 C52.776,56 53,56.224 53,56.5 C53,56.776 52.776,57 52.5,57 Z" id="Path" fill="#263238"></path>
            <path d="M48.5,57 L32.5,57 C32.224,57 32,56.776 32,56.5 C32,56.224 32.224,56 32.5,56 L48.5,56 C48.776,56 49,56.224 49,56.5 C49,56.776 48.776,57 48.5,57 Z" id="Path" fill="#263238"></path>
            <path d="M2.5,7 L0.5,7 C0.224,7 8.8817842e-16,6.776 8.8817842e-16,6.5 C8.8817842e-16,6.224 0.224,6 0.5,6 L2.5,6 C2.776,6 3,6.224 3,6.5 C3,6.776 2.776,7 2.5,7 Z" id="Path" fill="#263238"></path>
            <path d="M20.5,7 L4.5,7 C4.224,7 4,6.776 4,6.5 C4,6.224 4.224,6 4.5,6 L20.5,6 C20.776,6 21,6.224 21,6.5 C21,6.776 20.776,7 20.5,7 Z" id="Path" fill="#263238"></path>
            <path d="M47.251,3 L43.251,3 C42.975,3 42.751,2.776 42.751,2.5 C42.751,2.224 42.975,2 43.251,2 L47.251,2 C47.527,2 47.751,2.224 47.751,2.5 C47.751,2.776 47.527,3 47.251,3 Z" id="Path" fill="#263238"></path>
            <path d="M45.251,5 C44.975,5 44.751,4.776 44.751,4.5 L44.751,0.5 C44.751,0.224 44.975,0 45.251,0 C45.527,0 45.751,0.224 45.751,0.5 L45.751,4.5 C45.751,4.776 45.527,5 45.251,5 Z" id="Path" fill="#263238"></path>
            <path d="M52.751,8 L48.751,8 C48.475,8 48.251,7.776 48.251,7.5 C48.251,7.224 48.475,7 48.751,7 L52.751,7 C53.027,7 53.251,7.224 53.251,7.5 C53.251,7.776 53.027,8 52.751,8 Z" id="Path" fill="#263238"></path>
            <path d="M50.751,10 C50.475,10 50.251,9.776 50.251,9.5 L50.251,5.5 C50.251,5.224 50.475,5 50.751,5 C51.027,5 51.251,5.224 51.251,5.5 L51.251,9.5 C51.251,9.776 51.027,10 50.751,10 Z" id="Path" fill="#263238"></path>
        </g>
    </g>
</svg>