<?xml version="1.0" encoding="UTF-8"?>
<svg width="64px" height="64px" viewBox="0 0 64 64" version="1.1" xmlns="http://www.w3.org/2000/svg" xmlns:xlink="http://www.w3.org/1999/xlink">
    <title>startup-rocket@3x</title>
    <g id="Page-1" stroke="none" stroke-width="1" fill="none" fill-rule="evenodd">
        <g id="startup-rocket" fill-rule="nonzero">
            <path d="M16.999,63.5 C16.823,63.5 16.652,63.406 16.561,63.241 C16.428,62.999 16.517,62.695 16.758,62.562 L18.987,61.336 C23.621,58.788 26.499,53.919 26.499,48.63 L26.499,46.298 C26.499,46.022 26.723,45.798 26.999,45.798 C27.275,45.798 27.499,46.022 27.499,46.298 L27.499,48.63 C27.499,54.283 24.422,59.487 19.47,62.212 L17.241,63.438 C17.163,63.48 17.081,63.5 16.999,63.5 Z" id="Path" fill="#263238"></path>
            <path d="M46.999,63.5 C46.917,63.5 46.835,63.48 46.758,63.438 L44.529,62.212 C39.576,59.488 36.499,54.283 36.499,48.63 L36.499,46.298 C36.499,46.022 36.723,45.798 36.999,45.798 C37.275,45.798 37.499,46.022 37.499,46.298 L37.499,48.63 C37.499,53.918 40.378,58.787 45.012,61.336 L47.241,62.562 C47.482,62.695 47.571,62.999 47.438,63.241 C47.346,63.406 47.175,63.5 46.999,63.5 Z" id="Path" fill="#263238"></path>
            <path d="M12.499,63.5 C12.223,63.5 11.999,63.276 11.999,63 C11.999,56.107 17.606,50.5 24.499,50.5 C24.562,50.5 24.626,50.504 24.688,50.509 C24.964,50.516 25.231,50.749 25.224,51.025 C25.216,51.297 25.041,51.515 24.773,51.515 C24.769,51.515 24.764,51.515 24.759,51.515 L24.498,51.501 C18.157,51.501 12.998,56.66 12.998,63.001 C12.999,63.276 12.775,63.5 12.499,63.5 Z" id="Path" fill="#263238"></path>
            <path d="M51.499,63.5 C51.223,63.5 50.999,63.276 50.999,63 C50.999,56.659 45.84,51.5 39.499,51.5 L39.239,51.514 C39.234,51.514 39.229,51.514 39.225,51.514 C38.954,51.514 38.733,51.299 38.725,51.027 C38.718,50.751 38.936,50.521 39.211,50.514 C39.372,50.504 39.435,50.5 39.498,50.5 C46.391,50.5 51.9980033,56.107 51.9980033,63 C51.999,63.276 51.775,63.5 51.499,63.5 Z" id="Path" fill="#263238"></path>
            <path d="M2.499,63.5 C2.223,63.5 1.999,63.276 1.999,63 C1.999,57.762 6.261,53.5 11.499,53.5 C12.233,53.5 12.976,53.589 13.705,53.764 C13.974,53.829 14.139,54.099 14.074,54.367 C14.009,54.635 13.75,54.801 13.47,54.737 C12.818,54.58 12.154,54.5 11.498,54.5 C6.811,54.5 2.998,58.313 2.998,63 C2.999,63.276 2.775,63.5 2.499,63.5 Z" id="Path" fill="#263238"></path>
            <path d="M61.499,63.5 C61.223,63.5 60.999,63.276 60.999,63 C60.999,58.313 57.186,54.5 52.499,54.5 C51.844,54.5 51.181,54.58 50.528,54.737 C50.251,54.801 49.989,54.635 49.924,54.367 C49.859,54.099 50.025,53.829 50.293,53.764 C51.022,53.589 51.765,53.5 52.498,53.5 C57.736,53.5 61.9980033,57.762 61.9980033,63 C61.999,63.276 61.775,63.5 61.499,63.5 Z" id="Path" fill="#263238"></path>
            <path d="M63.499,63.5 L36.499,63.5 C36.223,63.5 35.999,63.276 35.999,63 C35.999,62.724 36.223,62.5 36.499,62.5 L63.499,62.5 C63.775,62.5 63.999,62.724 63.999,63 C63.999,63.276 63.775,63.5 63.499,63.5 Z" id="Path" fill="#263238"></path>
            <path d="M33.499,63.5 L30.499,63.5 C30.223,63.5 29.999,63.276 29.999,63 C29.999,62.724 30.223,62.5 30.499,62.5 L33.499,62.5 C33.775,62.5 33.999,62.724 33.999,63 C33.999,63.276 33.775,63.5 33.499,63.5 Z" id="Path" fill="#263238"></path>
            <path d="M27.499,63.5 L0.5,63.5 C0.224,63.5 0,63.276 0,63 C0,62.724 0.224,62.5 0.5,62.5 L27.499,62.5 C27.775,62.5 27.999,62.724 27.999,63 C27.999,63.276 27.775,63.5 27.499,63.5 Z" id="Path" fill="#263238"></path>
            <path d="M38.999,40.799 L24.999,40.799 C24.866,40.799 24.739,40.746 24.645,40.653 C24.551,40.56 24.499,40.432 24.499,40.299 L24.5,14.162 C24.5,9.626 26.033,5.156 28.818,1.576 C29.605,0.563 30.756,3.55271368e-15 32,3.55271368e-15 C33.243,3.55271368e-15 34.394,0.562 35.157,1.544 L34.786,1.882 L35.181,1.575 C37.966,5.155 39.499,9.625 39.499,14.161 L39.499,40.299 C39.499,40.576 39.275,40.799 38.999,40.799 Z M25.499,39.799 L38.499,39.799 L38.499,14.162 C38.499,9.847 37.04,5.596 34.392,2.19 C34.39,2.188 34.388,2.185 34.386,2.183 L34.363,2.152 C33.796,1.422 32.933,1 32,1 C31.066,1 30.203,1.422 29.631,2.158 C26.959,5.595 25.5,9.847 25.5,14.162 L25.499,39.799 Z" id="Shape" fill="#263238"></path>
            <g id="Group" transform="translate(12.499000, 35.799000)">
                <polyline id="Path" fill="#FFD740" points="10.501 0.5 0.501 0.5 0.501 4.5 10.501 4.5"></polyline>
                <path d="M10.5,5 L0.5,5 C0.224,5 0,4.776 0,4.5 L0,0.5 C0,0.224 0.224,0 0.5,0 L10.5,0 C10.776,0 11,0.224 11,0.5 C11,0.776 10.776,1 10.5,1 L1,1 L1,4 L10.5,4 C10.776,4 11,4.224 11,4.5 C11,4.776 10.776,5 10.5,5 Z" id="Path" fill="#263238"></path>
            </g>
            <path d="M36.999,44.799 L26.999,44.799 C26.723,44.799 26.499,44.575 26.499,44.299 L26.499,40.299 C26.499,40.023 26.723,39.799 26.999,39.799 L36.999,39.799 C37.275,39.799 37.499,40.023 37.499,40.299 L37.499,44.299 C37.499,44.576 37.275,44.799 36.999,44.799 Z M27.499,43.799 L36.499,43.799 L36.499,40.799 L27.499,40.799 L27.499,43.799 L27.499,43.799 Z" id="Shape" fill="#263238"></path>
            <g id="Group" transform="translate(27.499000, 8.000000)">
                <circle id="Oval" fill="#40C4FF" cx="4.501" cy="4.5" r="4"></circle>
                <path d="M4.5,9 C2.019,9 0,6.981 0,4.5 C0,2.019 2.019,0 4.5,0 C6.981,0 9,2.019 9,4.5 C9,6.981 6.981,9 4.5,9 Z M4.5,1 C2.57,1 1,2.57 1,4.5 C1,6.43 2.57,8 4.5,8 C6.43,8 8,6.43 8,4.5 C8,2.57 6.43,1 4.5,1 Z" id="Shape" fill="#263238"></path>
            </g>
            <path d="M12.999,36.799 C12.723,36.799 12.499,36.575 12.499,36.299 L12.499,33.299 C12.499,33.146 12.569,33.002 12.688,32.907 L22.688,24.99 C22.904,24.819 23.218,24.854 23.39,25.072 C23.562,25.289 23.526,25.603 23.309,25.775 L13.498,33.541 L13.498,36.299 C13.499,36.576 13.275,36.799 12.999,36.799 Z" id="Path" fill="#263238"></path>
            <g id="Group" transform="translate(40.499000, 35.799000)">
                <polyline id="Path" fill="#FFD740" points="0.501 0.5 10.501 0.5 10.501 4.5 0.501 4.5"></polyline>
                <path d="M10.5,5 L0.5,5 C0.224,5 0,4.776 0,4.5 C0,4.224 0.224,4 0.5,4 L10,4 L10,1 L0.5,1 C0.224,1 0,0.776 0,0.5 C0,0.224 0.224,0 0.5,0 L10.5,0 C10.776,0 11,0.224 11,0.5 L11,4.5 C11,4.777 10.776,5 10.5,5 Z" id="Path" fill="#263238"></path>
            </g>
            <path d="M50.999,36.799 C50.723,36.799 50.499,36.575 50.499,36.299 L50.499,33.541 L40.688,25.775 C40.471,25.604 40.435,25.289 40.607,25.072 C40.779,24.855 41.093,24.82 41.309,24.99 L51.309,32.907 C51.428,33.002 51.4980033,33.146 51.4980033,33.299 L51.4980033,36.299 C51.499,36.576 51.275,36.799 50.999,36.799 Z" id="Path" fill="#263238"></path>
            <path d="M56.499,6.5 L52.499,6.5 C52.223,6.5 51.999,6.276 51.999,6 C51.999,5.724 52.223,5.5 52.499,5.5 L56.499,5.5 C56.775,5.5 56.999,5.724 56.999,6 C56.999,6.276 56.775,6.5 56.499,6.5 Z" id="Path" fill="#263238"></path>
            <path d="M54.499,8.5 C54.223,8.5 53.999,8.276 53.999,8 L53.999,4 C53.999,3.724 54.223,3.5 54.499,3.5 C54.775,3.5 54.999,3.724 54.999,4 L54.999,8 C54.999,8.276 54.775,8.5 54.499,8.5 Z" id="Path" fill="#263238"></path>
            <path d="M63.499,13 L59.499,13 C59.223,13 58.999,12.776 58.999,12.5 C58.999,12.224 59.223,12 59.499,12 L63.499,12 C63.775,12 63.999,12.224 63.999,12.5 C63.999,12.776 63.775,13 63.499,13 Z" id="Path" fill="#263238"></path>
            <path d="M61.499,15 C61.223,15 60.999,14.776 60.999,14.5 L60.999,10.5 C60.999,10.224 61.223,10 61.499,10 C61.775,10 61.999,10.224 61.999,10.5 L61.999,14.5 C61.999,14.776 61.775,15 61.499,15 Z" id="Path" fill="#263238"></path>
            <path d="M20.999,21.5 C20.723,21.5 20.499,21.276 20.499,21 L20.499,19 C20.499,18.724 20.723,18.5 20.999,18.5 C21.275,18.5 21.499,18.724 21.499,19 L21.499,21 C21.499,21.276 21.275,21.5 20.999,21.5 Z" id="Path" fill="#263238"></path>
            <path d="M20.999,17.5 L20.999,17.5 C20.723,17.5 20.499,17.276 20.499,17 L20.5,9.5 C20.5,9.224 20.724,9 21,9 L21,9 C21.276,9 21.5,9.224 21.5,9.5 L21.499,17 C21.499,17.276 21.275,17.5 20.999,17.5 Z" id="Path" fill="#263238"></path>
            <path d="M42.999,21.5 C42.723,21.5 42.499,21.276 42.499,21 L42.499,19 C42.499,18.724 42.723,18.5 42.999,18.5 C43.275,18.5 43.499,18.724 43.499,19 L43.499,21 C43.499,21.276 43.275,21.5 42.999,21.5 Z" id="Path" fill="#263238"></path>
            <path d="M42.999,17.5 L42.999,17.5 C42.723,17.5 42.499,17.276 42.499,17 L42.5,9.5 C42.5,9.224 42.724,9 43,9 L43,9 C43.276,9 43.5,9.224 43.5,9.5 L43.499,17 C43.499,17.276 43.275,17.5 42.999,17.5 Z" id="Path" fill="#263238"></path>
            <path d="M35.999,37.799 C35.723,37.799 35.499,37.575 35.499,37.299 L35.499,17.299 C35.499,17.023 35.723,16.799 35.999,16.799 C36.275,16.799 36.499,17.023 36.499,17.299 L36.499,37.299 C36.499,37.576 36.275,37.799 35.999,37.799 Z" id="Path" fill="#263238"></path>
        </g>
    </g>
</svg>