<?xml version="1.0" encoding="UTF-8"?>
<svg width="59px" height="51px" viewBox="0 0 59 51" version="1.1" xmlns="http://www.w3.org/2000/svg" xmlns:xlink="http://www.w3.org/1999/xlink">
    <title>suitcase@3x</title>
    <g id="Page-1" stroke="none" stroke-width="1" fill="none" fill-rule="evenodd">
        <g id="suitcase" fill-rule="nonzero">
            <g id="Group" transform="translate(4.000000, 13.000000)">
                <path d="M48,20.5 L3,20.5 C1.619,20.5 0.5,19.381 0.5,18 L0.5,3 C0.5,1.619 1.619,0.5 3,0.5 L48,0.5 C49.381,0.5 50.5,1.619 50.5,3 L50.5,18 C50.5,19.381 49.381,20.5 48,20.5 Z" id="Path" fill="#40C4FF"></path>
                <path d="M48,21 L3,21 C1.346,21 0,19.654 0,18 L0,3 C0,1.346 1.346,0 3,0 L48,0 C49.654,0 51,1.346 51,3 L51,18 C51,19.654 49.654,21 48,21 Z M3,1 C1.897,1 1,1.897 1,3 L1,18 C1,19.103 1.897,20 3,20 L48,20 C49.103,20 50,19.103 50,18 L50,3 C50,1.897 49.103,1 48,1 L3,1 Z" id="Shape" fill="#263238"></path>
            </g>
            <path d="M8.5,8 L4.5,8 C4.224,8 4,7.776 4,7.5 C4,7.224 4.224,7 4.5,7 L8.5,7 C8.776,7 9,7.224 9,7.5 C9,7.776 8.776,8 8.5,8 Z" id="Path" fill="#263238"></path>
            <path d="M14.5,3 L10.5,3 C10.224,3 10,2.776 10,2.5 C10,2.224 10.224,2 10.5,2 L14.5,2 C14.776,2 15,2.224 15,2.5 C15,2.776 14.776,3 14.5,3 Z" id="Path" fill="#263238"></path>
            <path d="M12.5,5 C12.224,5 12,4.776 12,4.5 L12,0.5 C12,0.224 12.224,0 12.5,0 C12.776,0 13,0.224 13,0.5 L13,4.5 C13,4.776 12.776,5 12.5,5 Z" id="Path" fill="#263238"></path>
            <path d="M6.5,10 C6.224,10 6,9.776 6,9.5 L6,5.5 C6,5.224 6.224,5 6.5,5 C6.776,5 7,5.224 7,5.5 L7,9.5 C7,9.776 6.776,10 6.5,10 Z" id="Path" fill="#263238"></path>
            <path d="M0.5,46 C0.224,46 0,45.776 0,45.5 L0,31.5 C0,31.224 0.224,31 0.5,31 C0.776,31 1,31.224 1,31.5 L1,45.5 C1,45.776 0.776,46 0.5,46 Z" id="Path" fill="#263238"></path>
            <path d="M0.5,30 C0.224,30 0,29.776 0,29.5 L0,27.5 C0,27.224 0.224,27 0.5,27 C0.776,27 1,27.224 1,27.5 L1,29.5 C1,29.776 0.776,30 0.5,30 Z" id="Path" fill="#263238"></path>
            <path d="M36.5,12 C36.224,12 36,11.776 36,11.5 L36,9 C36,8.725 35.775,8.5 35.5,8.5 L23.5,8.5 C23.225,8.5 23,8.725 23,9 L23,11.5 C23,11.776 22.776,12 22.5,12 C22.224,12 22,11.776 22,11.5 L22,9 C22,8.173 22.673,7.5 23.5,7.5 L35.5,7.5 C36.327,7.5 37,8.173 37,9 L37,11.5 C37,11.776 36.776,12 36.5,12 Z" id="Path" fill="#263238"></path>
            <path d="M39.5,12 C39.224,12 39,11.776 39,11.5 L39,9 C39,7.07 37.43,5.5 35.5,5.5 L23.5,5.5 C21.57,5.5 20,7.07 20,9 L20,11.5 C20,11.776 19.776,12 19.5,12 C19.224,12 19,11.776 19,11.5 L19,9 C19,6.519 21.019,4.5 23.5,4.5 L35.5,4.5 C37.981,4.5 40,6.519 40,9 L40,11.5 C40,11.776 39.776,12 39.5,12 Z" id="Path" fill="#263238"></path>
            <path d="M58.5,33 C58.224,33 58,32.776 58,32.5 L58,18.5 C58,18.224 58.224,18 58.5,18 C58.776,18 59,18.224 59,18.5 L59,32.5 C59,32.776 58.776,33 58.5,33 Z" id="Path" fill="#263238"></path>
            <path d="M58.5,37 C58.224,37 58,36.776 58,36.5 L58,34.5 C58,34.224 58.224,34 58.5,34 C58.776,34 59,34.224 59,34.5 L59,36.5 C59,36.776 58.776,37 58.5,37 Z" id="Path" fill="#263238"></path>
            <path d="M51,51 L8,51 C6.346,51 5,49.654 5,48 L5,32.989 C5,32.8 5.107,32.626 5.277,32.542 C5.445,32.458 5.648,32.476 5.801,32.59 C6.156,32.858 6.57,33 7,33 L52,33 C52.43,33 52.844,32.858 53.198,32.59 C53.35,32.476 53.554,32.458 53.722,32.542 C53.892,32.626 53.9990006,32.8 53.9990006,32.989 L53.9990006,48 C54,49.654 52.654,51 51,51 Z M6,33.825 L6,48 C6,49.103 6.897,50 8,50 L51,50 C52.103,50 53,49.103 53,48 L53,33.825 C52.681,33.94 52.344,34 52,34 L7,34 C6.656,34 6.319,33.94 6,33.825 Z" id="Shape" fill="#263238"></path>
            <g id="Group" transform="translate(24.000000, 21.500000)">
                <path d="M9.5,3.5 L1.5,3.5 C0.948,3.5 0.5,3.052 0.5,2.5 L0.5,1.5 C0.5,0.948 0.948,0.5 1.5,0.5 L9.5,0.5 C10.052,0.5 10.5,0.948 10.5,1.5 L10.5,2.5 C10.5,3.052 10.052,3.5 9.5,3.5 Z" id="Path" fill="#FFFFFF"></path>
                <path d="M9.5,4 L1.5,4 C0.673,4 0,3.327 0,2.5 L0,1.5 C0,0.673 0.673,0 1.5,0 L9.5,0 C10.327,0 11,0.673 11,1.5 L11,2.5 C11,3.327 10.327,4 9.5,4 Z M1.5,1 C1.225,1 1,1.225 1,1.5 L1,2.5 C1,2.775 1.225,3 1.5,3 L9.5,3 C9.775,3 10,2.775 10,2.5 L10,1.5 C10,1.225 9.775,1 9.5,1 L1.5,1 Z" id="Shape" fill="#263238"></path>
            </g>
            <path d="M51.5,22 C51.224,22 51,21.776 51,21.5 L51,17.5 C51,17.225 50.775,17 50.5,17 L46.5,17 C46.224,17 46,16.776 46,16.5 C46,16.224 46.224,16 46.5,16 L50.5,16 C51.327,16 52,16.673 52,17.5 L52,21.5 C52,21.776 51.776,22 51.5,22 Z" id="Path" fill="#263238"></path>
            <g id="Group" transform="translate(14.500000, 27.500000)">
                <path d="M4.5,14.5 L2.5,16.5 L0.5,14.5 L0.5,1.5 C0.5,0.948 0.948,0.5 1.5,0.5 L3.5,0.5 C4.052,0.5 4.5,0.948 4.5,1.5 L4.5,14.5 Z" id="Path" fill="#FFD740"></path>
                <path d="M2.5,17 C2.372,17 2.244,16.951 2.146,16.854 L0.146,14.854 C0.053,14.76 0,14.633 0,14.5 L0,1.5 C0,0.673 0.673,0 1.5,0 L3.5,0 C4.327,0 5,0.673 5,1.5 L5,14.5 C5,14.633 4.947,14.76 4.854,14.854 L2.854,16.854 C2.756,16.951 2.628,17 2.5,17 Z M1,14.293 L2.5,15.793 L4,14.293 L4,1.5 C4,1.225 3.775,1 3.5,1 L1.5,1 C1.225,1 1,1.225 1,1.5 L1,14.293 Z" id="Shape" fill="#263238"></path>
            </g>
            <g id="Group" transform="translate(12.500000, 36.000000)">
                <path d="M7.5,3.5 L1.5,3.5 C0.948,3.5 0.5,3.052 0.5,2.5 L0.5,1.5 C0.5,0.948 0.948,0.5 1.5,0.5 L7.5,0.5 C8.052,0.5 8.5,0.948 8.5,1.5 L8.5,2.5 C8.5,3.052 8.052,3.5 7.5,3.5 Z" id="Path" fill="#FFD740"></path>
                <path d="M7.5,4 L1.5,4 C0.673,4 0,3.327 0,2.5 L0,1.5 C0,0.673 0.673,0 1.5,0 L7.5,0 C8.327,0 9,0.673 9,1.5 L9,2.5 C9,3.327 8.327,4 7.5,4 Z M1.5,1 C1.225,1 1,1.225 1,1.5 L1,2.5 C1,2.775 1.225,3 1.5,3 L7.5,3 C7.775,3 8,2.775 8,2.5 L8,1.5 C8,1.225 7.775,1 7.5,1 L1.5,1 Z" id="Shape" fill="#263238"></path>
            </g>
            <g id="Group" transform="translate(39.500000, 27.500000)">
                <path d="M4.5,14.5 L2.5,16.5 L0.5,14.5 L0.5,1.5 C0.5,0.948 0.948,0.5 1.5,0.5 L3.5,0.5 C4.052,0.5 4.5,0.948 4.5,1.5 L4.5,14.5 Z" id="Path" fill="#FFD740"></path>
                <path d="M2.5,17 C2.372,17 2.244,16.951 2.146,16.854 L0.146,14.854 C0.053,14.76 0,14.633 0,14.5 L0,1.5 C0,0.673 0.673,0 1.5,0 L3.5,0 C4.327,0 5,0.673 5,1.5 L5,14.5 C5,14.633 4.947,14.76 4.854,14.854 L2.854,16.854 C2.756,16.951 2.628,17 2.5,17 Z M1,14.293 L2.5,15.793 L4,14.293 L4,1.5 C4,1.225 3.775,1 3.5,1 L1.5,1 C1.225,1 1,1.225 1,1.5 L1,14.293 Z" id="Shape" fill="#263238"></path>
            </g>
            <g id="Group" transform="translate(37.500000, 36.000000)">
                <path d="M7.5,3.5 L1.5,3.5 C0.948,3.5 0.5,3.052 0.5,2.5 L0.5,1.5 C0.5,0.948 0.948,0.5 1.5,0.5 L7.5,0.5 C8.052,0.5 8.5,0.948 8.5,1.5 L8.5,2.5 C8.5,3.052 8.052,3.5 7.5,3.5 Z" id="Path" fill="#FFD740"></path>
                <path d="M7.5,4 L1.5,4 C0.673,4 0,3.327 0,2.5 L0,1.5 C0,0.673 0.673,0 1.5,0 L7.5,0 C8.327,0 9,0.673 9,1.5 L9,2.5 C9,3.327 8.327,4 7.5,4 Z M1.5,1 C1.225,1 1,1.225 1,1.5 L1,2.5 C1,2.775 1.225,3 1.5,3 L7.5,3 C7.775,3 8,2.775 8,2.5 L8,1.5 C8,1.225 7.775,1 7.5,1 L1.5,1 Z" id="Shape" fill="#263238"></path>
            </g>
        </g>
    </g>
</svg>