<?xml version="1.0" encoding="UTF-8"?>
<svg width="57px" height="57px" viewBox="0 0 57 57" version="1.1" xmlns="http://www.w3.org/2000/svg" xmlns:xlink="http://www.w3.org/1999/xlink">
    <title>target@3x</title>
    <g id="Page-1" stroke="none" stroke-width="1" fill="none" fill-rule="evenodd">
        <g id="target" fill-rule="nonzero">
            <path d="M48.06,14.597 L44.46,18.197 C49.221,25.557 48.384,35.486 41.936,41.935 C34.516,49.355 22.486,49.355 15.066,41.935 C7.646,34.515 7.646,22.485 15.066,15.065 C21.515,8.616 31.443,7.779 38.804,12.541 L42.404,8.941 C33.031,2.263 19.939,3.122 11.53,11.53 C2.157,20.903 2.157,36.098 11.53,45.471 C20.903,54.844 36.099,54.844 45.471,45.471 C53.879,37.062 54.738,23.969 48.06,14.597 Z" id="Path" fill="#FF5252"></path>
            <path d="M0.5,29 C0.224,29 0,28.776 0,28.5 C0,12.785 12.785,0 28.5,0 C28.776,0 29,0.224 29,0.5 C29,0.776 28.776,1 28.5,1 C13.337,1 1,13.336 1,28.5 C1,28.776 0.776,29 0.5,29 Z" id="Path" fill="#263238"></path>
            <path d="M31.5,1 L30.5,1 C30.224,1 30,0.776 30,0.5 C30,0.224 30.224,0 30.5,0 L31.5,0 C31.776,0 32,0.224 32,0.5 C32,0.776 31.776,1 31.5,1 Z" id="Path" fill="#263238"></path>
            <path d="M28.5,57 C28.224,57 28,56.776 28,56.5 C28,56.224 28.224,56 28.5,56 C43.663,56 56,43.664 56,28.5 C56,28.224 56.224,28 56.5,28 C56.776,28 57,28.224 57,28.5 C57,44.214 44.215,57 28.5,57 Z" id="Path" fill="#263238"></path>
            <path d="M26.5,57 L25.5,57 C25.224,57 25,56.776 25,56.5 C25,56.224 25.224,56 25.5,56 L26.5,56 C26.776,56 27,56.224 27,56.5 C27,56.776 26.776,57 26.5,57 Z" id="Path" fill="#263238"></path>
            <path d="M44.5,3 L40.5,3 C40.224,3 40,2.776 40,2.5 C40,2.224 40.224,2 40.5,2 L44.5,2 C44.776,2 45,2.224 45,2.5 C45,2.776 44.776,3 44.5,3 Z" id="Path" fill="#263238"></path>
            <path d="M42.5,5 C42.224,5 42,4.776 42,4.5 L42,0.5 C42,0.224 42.224,0 42.5,0 C42.776,0 43,0.224 43,0.5 L43,4.5 C43,4.776 42.776,5 42.5,5 Z" id="Path" fill="#263238"></path>
            <path d="M56.5,15.5 L52.5,15.5 C52.224,15.5 52,15.276 52,15 C52,14.724 52.224,14.5 52.5,14.5 L56.5,14.5 C56.776,14.5 57,14.724 57,15 C57,15.276 56.776,15.5 56.5,15.5 Z" id="Path" fill="#263238"></path>
            <path d="M54.5,17.5 C54.224,17.5 54,17.276 54,17 L54,13 C54,12.724 54.224,12.5 54.5,12.5 C54.776,12.5 55,12.724 55,13 L55,17 C55,17.276 54.776,17.5 54.5,17.5 Z" id="Path" fill="#263238"></path>
            <g id="Group" transform="translate(44.263048, 0.422484)">
                <polygon id="Path" fill="#FFD740" points="11.8139524 6.15651623 6.15695239 11.8135162 1.20795239 11.1065162 0.499952388 6.15651623 6.15695239 0.500516232 6.86395239 5.44951623"></polygon>
                <path d="M6.15695239,12.3135162 C6.13395239,12.3135162 6.10995239,12.3125162 6.08695239,12.3085162 L1.13695239,11.6015162 C0.915952388,11.5695162 0.742952388,11.3965162 0.711952388,11.1775162 L0.00495238796,6.22751623 C-0.017047612,6.07151623 0.034952388,5.91451623 0.146952388,5.80351623 L5.80295239,0.146516232 C5.93695239,0.0135162321 6.13595239,-0.0344837679 6.31495239,0.0255162321 C6.49495239,0.0855162321 6.62495239,0.241516232 6.65195239,0.428516232 L7.30595239,5.00751623 L11.8839524,5.66151623 C12.0719524,5.68851623 12.2279524,5.81851623 12.2879524,5.99851623 C12.3479524,6.17851623 12.3009524,6.37651623 12.1669524,6.51051623 L6.50995239,12.1675162 C6.41595239,12.2615162 6.28895239,12.3135162 6.15695239,12.3135162 Z M1.64995239,10.6645162 L5.97995239,11.2835162 L10.7529524,6.51051623 L6.79295239,5.94451623 C6.57195239,5.91251623 6.39895239,5.73951623 6.36795239,5.52051623 L5.80295239,1.56051623 L1.03095239,6.33351623 L1.64995239,10.6645162 Z" id="Shape" fill="#263238"></path>
            </g>
            <g id="Group" transform="translate(26.000750, 8.554046)">
                <path d="M19.47025,2.97495387 L19.11625,0.499953867 L1.08525,18.5309539 C0.30425,19.3119539 0.30425,20.5779539 1.08525,21.3589539 C1.86625,22.1399539 3.13225,22.1399539 3.91325,21.3589539 L21.94425,3.32795387 L19.47025,2.97495387 Z" id="Path" fill="#FFD740"></path>
                <path d="M2.49925,22.4439539 C1.85825,22.4439539 1.21925,22.2009539 0.73125,21.7139539 C-0.24375,20.7389539 -0.24375,19.1529539 0.73125,18.1779539 L18.76225,0.146953867 C18.89725,0.0139538675 19.09525,-0.0350461325 19.27425,0.0259538675 C19.45425,0.0859538675 19.58425,0.241953867 19.61125,0.428953867 L19.91225,2.53295387 L22.01525,2.83295387 C22.20325,2.85995387 22.35925,2.98995387 22.41925,3.16995387 C22.47925,3.34995387 22.43225,3.54795387 22.29825,3.68195387 L4.26725,21.7139539 C3.77925,22.2009539 3.13925,22.4439539 2.49925,22.4439539 Z M18.76325,1.56095387 L1.43825,18.8849539 C0.85325,19.4699539 0.85325,20.4219539 1.43825,21.0069539 C2.02225,21.5909539 2.97525,21.5909539 3.55925,21.0069539 L20.88325,3.68295387 L19.39925,3.46995387 C19.17825,3.43795387 19.00525,3.26495387 18.97425,3.04595387 L18.76325,1.56095387 Z" id="Shape" fill="#263238"></path>
            </g>
            <path d="M40.812,21.844 L37.023,25.634 C37.286,26.418 37.438,27.231 37.48,28.048 C37.564,29.682 37.205,31.335 36.402,32.809 C36,33.547 35.488,34.24 34.863,34.864 C31.348,38.379 25.65,38.379 22.135,34.864 C21.476,34.205 20.941,33.469 20.529,32.685 C19.156,30.072 19.156,26.927 20.529,24.314 C20.941,23.53 21.476,22.794 22.135,22.135 C24.632,19.638 28.23,18.924 31.365,19.976 L35.154,16.187 C29.848,13.316 23.083,14.116 18.599,18.6 C13.132,24.067 13.132,32.932 18.599,38.399 C24.066,43.866 32.931,43.866 38.398,38.399 C42.883,33.915 43.683,27.15 40.812,21.844 Z" id="Path" fill="#FF5252"></path>
            <path d="M44.459,18.197 L40.812,21.844 C43.683,27.15 42.883,33.915 38.399,38.399 C32.932,43.866 24.067,43.866 18.6,38.399 C13.133,32.932 13.133,24.067 18.6,18.6 C23.084,14.116 29.849,13.316 35.155,16.187 L38.802,12.54 C31.441,7.779 21.513,8.615 15.064,15.064 C7.644,22.484 7.644,34.514 15.064,41.934 C22.484,49.354 34.514,49.354 41.934,41.934 C48.384,35.486 49.221,25.558 44.459,18.197 Z" id="Path" fill="#FFFFFF"></path>
            <path d="M28.5,52.988 C22.226,52.988 15.952,50.6 11.176,45.824 C1.624,36.272 1.624,20.728 11.176,11.176 C19.669,2.684 32.924,1.572 42.694,8.533 C42.919,8.693 42.971,9.006 42.811,9.23 C42.651,9.456 42.338,9.508 42.114,9.347 C32.745,2.669 20.028,3.736 11.884,11.883 C2.722,21.046 2.722,35.954 11.884,45.117 C21.047,54.279 35.955,54.28 45.118,45.117 C53.264,36.971 54.33,24.258 47.653,14.887 C47.493,14.662 47.546,14.35 47.77,14.19 C47.995,14.031 48.306,14.081 48.467,14.307 C55.429,24.077 54.318,37.331 45.824,45.824 C41.048,50.6 34.774,52.988 28.5,52.988 Z" id="Path" fill="#263238"></path>
            <path d="M28.5,47.99 C23.506,47.99 18.514,46.09 14.712,42.288 C11.028,38.605 9,33.708 9,28.5 C9,23.292 11.028,18.395 14.712,14.711 C21.168,8.254 31.415,7.166 39.074,12.12 C39.306,12.27 39.372,12.579 39.222,12.811 C39.072,13.044 38.761,13.108 38.531,12.959 C31.262,8.258 21.544,9.291 15.419,15.417 C11.925,18.912 10,23.558 10,28.5 C10,33.442 11.925,38.087 15.419,41.582 C22.632,48.795 34.368,48.795 41.581,41.582 C47.707,35.457 48.74,25.737 44.039,18.47 C43.89,18.238 43.955,17.928 44.187,17.779 C44.417,17.63 44.728,17.694 44.878,17.927 C49.834,25.587 48.744,35.833 42.287,42.289 C38.487,46.089 33.493,47.99 28.5,47.99 Z" id="Path" fill="#263238"></path>
            <path d="M28.5,43 C24.627,43 20.985,41.492 18.247,38.753 C15.508,36.014 14,32.373 14,28.5 C14,24.627 15.508,20.986 18.247,18.247 C22.746,13.748 29.798,12.721 35.393,15.747 C35.635,15.878 35.726,16.182 35.594,16.425 C35.463,16.669 35.158,16.756 34.916,16.627 C29.705,13.808 23.142,14.766 18.953,18.954 C16.403,21.504 14.999,24.894 14.999,28.5 C14.999,32.106 16.403,35.496 18.953,38.046 C21.503,40.596 24.892,42 28.499,42 C32.106,42 35.495,40.596 38.045,38.046 C42.233,33.857 43.191,27.293 40.372,22.082 C40.24,21.839 40.331,21.536 40.573,21.404 C40.816,21.275 41.12,21.362 41.251,21.606 C44.278,27.202 43.251,34.253 38.752,38.752 C36.015,41.492 32.373,43 28.5,43 Z" id="Path" fill="#263238"></path>
            <path d="M28.5,37.996 C26.067,37.996 23.635,37.07 21.782,35.218 C18.078,31.514 18.078,25.487 21.782,21.783 C24.345,19.221 28.079,18.348 31.525,19.503 C31.787,19.591 31.927,19.874 31.839,20.136 C31.753,20.398 31.47,20.539 31.206,20.451 C28.123,19.416 24.78,20.197 22.488,22.49 C19.174,25.804 19.174,31.197 22.488,34.511 C25.802,37.825 31.195,37.825 34.509,34.511 C36.8,32.219 37.581,28.879 36.548,25.793 C36.46,25.531 36.601,25.248 36.862,25.16 C37.125,25.073 37.408,25.213 37.495,25.475 C38.65,28.922 37.777,32.656 35.216,35.218 C33.365,37.069 30.933,37.996 28.5,37.996 Z" id="Path" fill="#263238"></path>
            <path d="M45.471,12.029 C45.343,12.029 45.215,11.98 45.117,11.883 C44.922,11.688 44.922,11.371 45.117,11.176 L50.773,5.519 C50.968,5.324 51.285,5.324 51.48,5.519 C51.675,5.714 51.675,6.031 51.48,6.226 L45.824,11.883 C45.727,11.98 45.599,12.029 45.471,12.029 Z" id="Path" fill="#263238"></path>
        </g>
    </g>
</svg>